<?xml version="1.0" encoding="UTF-8"?>
<svg width="793px" height="1521px" viewBox="0 0 793 1521" version="1.1" xmlns="http://www.w3.org/2000/svg" xmlns:xlink="http://www.w3.org/1999/xlink">
    <!-- Generator: Sketch 50.2 (55047) - http://www.bohemiancoding.com/sketch -->
    <title>icons-things-to-try</title>
    <desc>Created with Sketch.</desc>
    <defs></defs>
    <g id="icons-things-to-try" stroke="none" stroke-width="1" fill="none" fill-rule="evenodd">
        <rect id="background" fill="#012B3B" x="0" y="0" width="793" height="1521"></rect>
        <text id="Getting-Started-Alex" font-family="AmazonEmber-Regular, Amazon Ember" font-size="20" font-weight="normal" line-spacing="20" fill="#FFFFFF">
            <tspan x="143" y="236">Getting Started</tspan>
            <tspan x="143" y="316">Alexa’s Talents</tspan>
            <tspan x="143" y="396">Entertainment</tspan>
            <tspan x="143" y="476">Communication</tspan>
            <tspan x="143" y="556">Navigation</tspan>
            <tspan x="143" y="636">Weather</tspan>
            <tspan x="143" y="716">Smart home</tspan>
            <tspan x="143" y="796">News and Information</tspan>
            <tspan x="143" y="876">Skills</tspan>
            <tspan x="143" y="956">Traffic Information</tspan>
            <tspan x="143" y="1036">Lists</tspan>
            <tspan x="143" y="1116">Shopping </tspan>
            <tspan x="143" y="1196">Questions and Answers</tspan>
            <tspan x="143" y="1276">Sports</tspan>
            <tspan x="143" y="1356">Calendar</tspan>
            <tspan x="143" y="1436">Movies</tspan>
        </text>
        <path d="M73,1422 C74.6577153,1422 76,1420.65772 76,1419 C76,1417.34228 74.6577153,1416 73,1416 C71.3422847,1416 70,1417.34228 70,1419 C70,1420.65772 71.3422847,1422 73,1422 Z M73,1424 C70.2377153,1424 68,1421.76228 68,1419 C68,1416.23772 70.2377153,1414 73,1414 C75.7622847,1414 78,1416.23772 78,1419 C78,1421.76228 75.7622847,1424 73,1424 Z M71,1430 C71,1428.895 71.895,1428 73,1428 C74.105,1428 75,1428.895 75,1430 C75,1431.105 74.105,1432 73,1432 C71.895,1432 71,1431.105 71,1430 Z M84,1434 L84,1435 C81.2377153,1435 79,1432.76228 79,1430 C79,1427.23772 81.2377153,1425 84,1425 C86.7622847,1425 89,1427.23772 89,1430 C89,1432.76228 86.7622847,1435 84,1435 L84,1434 Z M84,1434 L84,1433 C85.6577153,1433 87,1431.65772 87,1430 C87,1428.34228 85.6577153,1427 84,1427 C82.3422847,1427 81,1428.34228 81,1430 C81,1431.65772 82.3422847,1433 84,1433 L84,1434 Z M69,1441 L68,1441 C68,1438.23772 70.2377153,1436 73,1436 C75.7622847,1436 78,1438.23772 78,1441 C78,1443.76228 75.7622847,1446 73,1446 C70.2377153,1446 68,1443.76228 68,1441 L69,1441 Z M69,1441 L70,1441 C70,1442.65772 71.3422847,1444 73,1444 C74.6577153,1444 76,1442.65772 76,1441 C76,1439.34228 74.6577153,1438 73,1438 C71.3422847,1438 70,1439.34228 70,1441 L69,1441 Z M62,1426 L62,1425 C64.7622847,1425 67,1427.23772 67,1430 C67,1432.76228 64.7622847,1435 62,1435 C59.2377153,1435 57,1432.76228 57,1430 C57,1427.23772 59.2377153,1425 62,1425 L62,1426 Z M62,1426 L62,1427 C60.3422847,1427 59,1428.34228 59,1430 C59,1431.65772 60.3422847,1433 62,1433 C63.6577153,1433 65,1431.65772 65,1430 C65,1428.34228 63.6577153,1427 62,1427 L62,1426 Z M73,1450 C84.045695,1450 93,1441.04569 93,1430 C93,1418.95431 84.045695,1410 73,1410 C61.954305,1410 53,1418.95431 53,1430 C53,1441.04569 61.954305,1450 73,1450 Z M70.7953593,1451.89091 C59.6802739,1450.78497 51,1441.40618 51,1430 C51,1417.84974 60.8497355,1408 73,1408 C85.1502645,1408 95,1417.84974 95,1430 C95,1438.87441 89.7454957,1446.52156 82.1779412,1450 L93.25,1450 C93.8022847,1450 94.25,1450.44772 94.25,1451 C94.25,1451.55228 93.8022847,1452 93.25,1452 L71.25,1452 C71.0862849,1452 70.9317586,1451.96066 70.7953593,1451.89091 Z" id="Movies" fill="#F0F1EF" fill-rule="nonzero"></path>
        <path d="M90.8479,1333.27273 L84.55,1333.27273 L84.55,1330.06818 C84.55,1329.47855 84.0796,1329 83.5,1329 C82.9204,1329 82.45,1329.47855 82.45,1330.06818 L82.45,1333.27273 L63.55,1333.27273 L63.55,1330.06818 C63.55,1329.47855 63.0796,1329 62.5,1329 C61.9204,1329 61.45,1329.47855 61.45,1330.06818 L61.45,1333.27273 L55.1521,1333.27273 C53.4133,1333.27273 52,1334.7105 52,1336.47941 L52,1372.79332 C52,1374.56009 53.4175,1376 55.1584,1376 L79.2916,1376 L79.3,1376 C80.7448,1376 82.6054,1375.21595 83.6302,1374.17555 L92.2066,1365.45064 C93.2293,1364.40809 94,1362.51527 94,1361.04545 L94,1361.03691 L94,1336.48582 C94,1334.71477 92.5867,1333.27273 90.8479,1333.27273 Z M82.45,1372.35323 L82.45,1365.30964 C82.45,1364.72641 82.9183,1364.25 83.4916,1364.25 L90.4153,1364.25 L82.45,1372.35323 Z M91.9,1361.03691 C91.9,1361.63082 91.4317,1362.11364 90.8584,1362.11364 L83.4916,1362.11364 C81.7591,1362.11364 80.35,1363.54714 80.35,1365.30964 L80.35,1372.804 C80.35,1373.38723 79.8754,1373.86364 79.2916,1373.86364 L55.1584,1373.86364 C54.5746,1373.86364 54.1,1373.38295 54.1,1372.79332 L54.1,1336.47941 C54.1,1335.88977 54.5725,1335.40909 55.1521,1335.40909 L61.45,1335.40909 L61.45,1338.81018 C60.2299,1339.25241 59.35,1340.42741 59.35,1341.81818 C59.35,1343.58495 60.7633,1345.02273 62.5,1345.02273 C64.2367,1345.02273 65.65,1343.58495 65.65,1341.81818 C65.65,1340.42741 64.7701,1339.25241 63.55,1338.81018 L63.55,1335.40909 L82.45,1335.40909 L82.45,1338.81018 C81.2299,1339.25241 80.35,1340.42741 80.35,1341.81818 C80.35,1343.58495 81.7633,1345.02273 83.5,1345.02273 C85.2367,1345.02273 86.65,1343.58495 86.65,1341.81818 C86.65,1340.42741 85.7701,1339.25241 84.55,1338.81018 L84.55,1335.40909 L90.8479,1335.40909 C91.4275,1335.40909 91.9,1335.89191 91.9,1336.48582 L91.9,1361.03691 Z M62.5,1340.75 C63.0796,1340.75 63.55,1341.22855 63.55,1341.81818 C63.55,1342.40782 63.0796,1342.88636 62.5,1342.88636 C61.9204,1342.88636 61.45,1342.40782 61.45,1341.81818 C61.45,1341.22855 61.9204,1340.75 62.5,1340.75 Z M83.5,1340.75 C84.0796,1340.75 84.55,1341.22855 84.55,1341.81818 C84.55,1342.40782 84.0796,1342.88636 83.5,1342.88636 C82.9204,1342.88636 82.45,1342.40782 82.45,1341.81818 C82.45,1341.22855 82.9204,1340.75 83.5,1340.75 Z" id="Calendar" fill="#FFFFFF" fill-rule="nonzero"></path>
        <path d="M84.4064076,1277.2188 L80.1316865,1277.2188 C79.5766045,1277.2188 79.1266216,1276.76717 79.1266216,1276.21006 C79.1266216,1275.65295 79.5766045,1275.20132 80.1316865,1275.20132 L84.4064076,1275.20132 L84.4064076,1273.18384 L81.1367514,1273.18384 C80.5816694,1273.18384 80.1316865,1272.73221 80.1316865,1272.1751 C80.1316865,1271.61799 80.5816694,1271.16636 81.1367514,1271.16636 L84.4064076,1271.16636 L84.4064076,1269.11627 C84.3251368,1269.13755 84.2398595,1269.14888 84.151946,1269.14888 L82.1418162,1269.14888 C81.5867342,1269.14888 81.1367514,1268.69725 81.1367514,1268.14014 C81.1367514,1267.58303 81.5867342,1267.1314 82.1418162,1267.1314 L84.151946,1267.1314 C84.2398595,1267.1314 84.3251368,1267.14273 84.4064076,1267.16401 L84.4064076,1265.29188 C84.117686,1265.1923 83.8068709,1265.07965 83.4783531,1264.95406 C82.2559491,1264.48673 81.0328311,1263.93541 79.8850185,1263.30017 C78.5059254,1262.53694 77.3270483,1261.70195 76.4081181,1260.78582 C75.727878,1260.10752 75.0744873,1259.33556 74.4483761,1258.48736 C73.6301085,1257.37884 72.8977416,1256.19629 72.2592318,1255.01403 C72.2038697,1254.91152 72.1501857,1254.81079 72.0981983,1254.71197 L59.7910423,1266.98487 C59.5685748,1267.20671 59.5787808,1267.69809 59.8481068,1267.9663 L82.499889,1290.55385 C82.5300581,1290.58392 82.6309202,1290.66385 82.7847476,1290.75032 C83.0449214,1290.89657 83.3311911,1290.98252 83.6353357,1290.98252 L95.5463109,1290.98252 C95.8056838,1290.98252 95.9898703,1290.80297 95.9898703,1290.54763 L95.9898703,1289.10372 C95.9898703,1286.40219 93.9413899,1284.33766 91.2027671,1284.33766 L86.8592233,1284.33766 C86.3041413,1284.33766 85.8541585,1283.88603 85.8541585,1283.32892 C85.8541585,1282.77181 86.3041413,1282.32018 86.8592233,1282.32018 L91.2027671,1282.32018 C95.0534286,1282.32018 98,1285.28984 98,1289.10372 L98,1290.54763 C98,1291.93057 96.9029429,1293 95.5463109,1293 L83.6353357,1293 C82.9597811,1293 82.3447365,1292.81533 81.8025045,1292.51053 C81.4748886,1292.32638 81.2342643,1292.13568 81.0832802,1291.98519 L58.4318254,1269.39797 C57.3837494,1268.35426 57.3468607,1266.57818 58.3742713,1265.55369 L71.6715706,1252.2934 C72.1713992,1251.79496 73.0138241,1251.95402 73.2990206,1252.60068 C73.3280114,1252.66641 73.3889549,1252.79866 73.4803985,1252.98779 C73.6352405,1253.30806 73.8177583,1253.66622 74.0264386,1254.05261 C74.6228158,1255.15686 75.3065079,1256.26081 76.063536,1257.28637 C76.632476,1258.05712 77.2211542,1258.75262 77.824794,1259.35454 C78.5952699,1260.12267 79.62745,1260.85376 80.8556479,1261.53348 C81.9133337,1262.11884 83.0532498,1262.63266 84.1938798,1263.06872 C84.5933809,1263.22145 84.9637919,1263.35331 85.2951009,1263.46377 C85.4909486,1263.52907 85.6280436,1263.5721 85.6964336,1263.59239 C86.1234878,1263.71911 86.4165373,1264.11278 86.4165373,1264.55974 L86.4165373,1278.4759 L87.7478143,1279.42167 C88.2008808,1279.74354 88.3081874,1280.37309 87.9874901,1280.82782 C87.6667929,1281.28254 87.0395334,1281.39024 86.5864668,1281.06837 L84.8307987,1279.8211 C84.5646257,1279.632 84.4064076,1279.32505 84.4064076,1278.99775 L84.4064076,1277.2188 Z M56.4530486,1278.56234 C55.8979666,1278.56234 55.4479838,1278.11071 55.4479838,1277.5536 C55.4479838,1276.99649 55.8979666,1276.54486 56.4530486,1276.54486 L60.4733081,1276.54486 C61.0283901,1276.54486 61.478373,1276.99649 61.478373,1277.5536 C61.478373,1278.11071 61.0283901,1278.56234 60.4733081,1278.56234 L56.4530486,1278.56234 Z M55.0050649,1282.89362 C54.4499829,1282.89362 54,1282.442 54,1281.88488 C54,1281.32777 54.4499829,1280.87614 55.0050649,1280.87614 L63.0455838,1280.87614 C63.6006658,1280.87614 64.0506487,1281.32777 64.0506487,1281.88488 C64.0506487,1282.442 63.6006658,1282.89362 63.0455838,1282.89362 L55.0050649,1282.89362 Z M57.9009742,1287.22514 C57.3458922,1287.22514 56.8959093,1286.77352 56.8959093,1286.2164 C56.8959093,1285.65929 57.3458922,1285.20766 57.9009742,1285.20766 L67.9516229,1285.20766 C68.5067049,1285.20766 68.9566877,1285.65929 68.9566877,1286.2164 C68.9566877,1286.77352 68.5067049,1287.22514 67.9516229,1287.22514 L57.9009742,1287.22514 Z" id="Sports" fill="#F0F1EF" fill-rule="nonzero"></path>
        <path d="M73.7362698,1213.99994 C73.6355558,1213.99974 73.6355558,1213.99974 73.6146406,1213.99987 L73.521437,1213.99293 C68.2643927,1213.6551 65.3911551,1210.25185 65.8923973,1204.38222 C66.0108777,1202.99442 65.710276,1201.75783 64.9596635,1200.20986 C64.7821081,1199.84369 64.5799679,1199.45891 64.3162248,1198.97972 C64.1988211,1198.76642 63.8295498,1198.10641 63.6602533,1197.80331 C61.0234426,1195.31516 59.5094695,1191.95062 59.5094695,1188.35797 C59.5094695,1180.96391 65.8649563,1174.99134 73.6794981,1174.99134 C81.493908,1174.99134 87.8493686,1180.96394 87.8493686,1188.35797 C87.8493686,1191.83129 86.432159,1195.09319 83.9447407,1197.56076 C83.7794596,1197.85092 83.4347661,1198.45417 83.333003,1198.63428 C83.0819441,1199.07862 82.8888681,1199.43223 82.7150334,1199.76996 C81.8114792,1201.5254 81.4483419,1202.87137 81.5774059,1204.38222 C82.0783721,1210.25056 79.2065154,1213.65357 73.9520057,1213.99654 C73.8770168,1213.99992 73.822863,1214.00017 73.7362698,1213.99994 Z M79.5791583,1204.54947 C79.4138773,1202.61466 79.8696859,1200.92519 80.9282639,1198.86858 C81.1156502,1198.50452 81.3201869,1198.12992 81.5828247,1197.66508 C81.7060026,1197.44707 82.1649098,1196.64436 82.2649284,1196.4678 L82.3349397,1196.34421 L82.4370843,1196.24494 C84.6111418,1194.13222 85.8439925,1191.3355 85.8439925,1188.35797 C85.8439925,1182.0842 80.4090553,1176.97667 73.6794981,1176.97667 C66.9498055,1176.97667 61.5148456,1182.08417 61.5148456,1188.35797 C61.5148456,1191.4423 62.8354595,1194.33115 65.1455162,1196.46104 L65.2633847,1196.56971 L65.3409431,1196.70947 C65.4137893,1196.84073 65.9302873,1197.76297 66.0771494,1198.0298 C66.3559538,1198.53635 66.5729073,1198.94933 66.7675179,1199.35067 C67.660652,1201.19256 68.0429657,1202.76528 67.890647,1204.54944 C67.4834935,1209.31728 69.5225074,1211.74035 73.6338918,1212.01447 C73.6537384,1212.01438 73.6714772,1212.01443 73.7123106,1212.01455 C73.8036355,1212.01457 73.8272639,1212.01453 73.8348227,1212.01454 C77.9468187,1211.74071 79.9862055,1209.31764 79.5791583,1204.54947 Z M62.8671922,1173.65953 C63.266711,1174.03916 63.2797255,1174.66755 62.8962608,1175.06308 C62.5127961,1175.4586 61.8780625,1175.47149 61.4785437,1175.09186 L59.3083651,1173.02971 C58.9088463,1172.65007 58.8958319,1172.02169 59.2792965,1171.62616 C59.6627612,1171.23064 60.2974948,1171.21775 60.6970136,1171.59738 L62.8671922,1173.65953 Z M74.5399027,1170.97066 C74.5399027,1171.51889 74.090984,1171.96332 73.5372147,1171.96332 C72.9834453,1171.96332 72.5345266,1171.51889 72.5345266,1170.97066 L72.5345266,1167.99266 C72.5345266,1167.44443 72.9834453,1167 73.5372147,1167 C74.090984,1167 74.5399027,1167.44443 74.5399027,1167.99266 L74.5399027,1170.97066 Z M85.5214563,1175.09186 C85.1219375,1175.47149 84.4872039,1175.4586 84.1037392,1175.06308 C83.7202745,1174.66755 83.733289,1174.03916 84.1328078,1173.65953 L86.3029864,1171.59738 C86.7025052,1171.21775 87.3372388,1171.23064 87.7207035,1171.62616 C88.1041681,1172.02169 88.0911537,1172.65007 87.6916349,1173.02971 L85.5214563,1175.09186 Z M73.5868694,1213.00623 L73.4163362,1213.98444 L73.4232913,1213.98563 L73.521437,1213.99293 L73.5868694,1213.00623 Z M66.3491395,1200.99836 C65.7953702,1200.99836 65.3464514,1200.55392 65.3464514,1200.00569 C65.3464514,1199.45746 65.7953702,1199.01303 66.3491395,1199.01303 L81.0668249,1199.01303 C81.6205942,1199.01303 82.0695129,1199.45746 82.0695129,1200.00569 C82.0695129,1200.55392 81.6205942,1200.99836 81.0668249,1200.99836 L66.3491395,1200.99836 Z M66.910444,1205.01546 C66.3566747,1205.01546 65.9077559,1204.57103 65.9077559,1204.0228 C65.9077559,1203.47456 66.3566747,1203.03013 66.910444,1203.03013 L80.183131,1203.03013 C80.7369003,1203.03013 81.185819,1203.47456 81.185819,1204.0228 C81.185819,1204.57103 80.7369003,1205.01546 80.183131,1205.01546 L66.910444,1205.01546 Z M68.6619354,1188.08961 C68.3814224,1187.61692 68.5410835,1187.0086 69.0185486,1186.73089 C69.4960137,1186.45318 70.1104764,1186.61125 70.3909894,1187.08394 L74.5560014,1194.10239 C74.8365144,1194.57508 74.6768532,1195.1834 74.1993882,1195.46111 C73.7219231,1195.73882 73.1074604,1195.58076 72.8269474,1195.10806 L68.6619354,1188.08961 Z M77.4912206,1187.04326 C77.7944285,1186.5845 78.4158746,1186.45595 78.8792594,1186.75613 C79.3426441,1187.05631 79.4724931,1187.67154 79.1692852,1188.13029 L74.5305067,1195.14875 C74.2272988,1195.6075 73.6058526,1195.73605 73.1424679,1195.43587 C72.6790831,1195.1357 72.5492341,1194.52046 72.8524421,1194.06171 L77.4912206,1187.04326 Z M72.5345266,1193.54276 L74.5399027,1193.54276 L74.5399027,1199.49875 L72.5345266,1199.49875 L72.5345266,1193.54276 Z" id="Questions-and-Answers" fill="#F0F1EF" fill-rule="nonzero"></path>
        <path d="M56,1094.99018 L56,1123.00982 C56,1124.10915 56.8920836,1125 57.9948438,1125 L88.0051562,1125 C89.1112692,1125 90,1124.11128 90,1123.00982 L90,1094.99018 C90,1093.89085 89.1079164,1093 88.0051562,1093 L57.9948438,1093 C56.8887308,1093 56,1093.88872 56,1094.99018 Z M54,1094.99018 C54,1092.78646 55.7818508,1091 57.9948438,1091 L88.0051562,1091 C90.2114475,1091 92,1092.78525 92,1094.99018 L92,1123.00982 C92,1125.21354 90.2181492,1127 88.0051562,1127 L57.9948438,1127 C55.7885525,1127 54,1125.21475 54,1123.00982 L54,1094.99018 Z M81.9922633,1090.875 C81.9973696,1090.91595 82,1090.95767 82,1091 L82,1097 C82,1097.55228 81.5522847,1098 81,1098 C80.4477153,1098 80,1097.55228 80,1097 L80,1091 C80,1090.95767 80.0026304,1090.91595 80.0077367,1090.875 C80.0026304,1090.83405 80,1090.79233 80,1090.75 C80,1087.61557 76.9000635,1085 73,1085 C69.0999365,1085 66,1087.61557 66,1090.75 L66,1097 C66,1097.55228 65.5522847,1098 65,1098 C64.4477153,1098 64,1097.55228 64,1097 L64,1090.75 C64,1086.42858 68.0635075,1083 73,1083 C77.9364925,1083 82,1086.42858 82,1090.75 C82,1090.79233 81.9973696,1090.83405 81.9922633,1090.875 Z M81,1102 C79.3431458,1102 78,1100.65685 78,1099 C78,1097.34315 79.3431458,1096 81,1096 C82.6568542,1096 84,1097.34315 84,1099 C84,1100.65685 82.6568542,1102 81,1102 Z M81,1100 C81.5522847,1100 82,1099.55228 82,1099 C82,1098.44772 81.5522847,1098 81,1098 C80.4477153,1098 80,1098.44772 80,1099 C80,1099.55228 80.4477153,1100 81,1100 Z M65,1102 C63.3431458,1102 62,1100.65685 62,1099 C62,1097.34315 63.3431458,1096 65,1096 C66.6568542,1096 68,1097.34315 68,1099 C68,1100.65685 66.6568542,1102 65,1102 Z M65,1100 C65.5522847,1100 66,1099.55228 66,1099 C66,1098.44772 65.5522847,1098 65,1098 C64.4477153,1098 64,1098.44772 64,1099 C64,1099.55228 64.4477153,1100 65,1100 Z" id="Shopping" fill="#F0F1EF" fill-rule="nonzero"></path>
        <path d="M82.8741783,1037.99943 C76.177272,1037.99943 70.7483567,1032.62697 70.7483567,1025.99971 C70.7483567,1019.37245 76.177272,1014 82.8741783,1014 C89.5710847,1014 95,1019.37245 95,1025.99971 C95,1032.62697 89.5710847,1037.99943 82.8741783,1037.99943 Z M82.8741783,1035.99943 C88.454907,1035.99943 92.9789814,1031.5224 92.9789814,1025.99971 C92.9789814,1020.47702 88.454907,1016 82.8741783,1016 C77.2934497,1016 72.7693753,1020.47702 72.7693753,1025.99971 C72.7693753,1031.5224 77.2934497,1035.99943 82.8741783,1035.99943 Z M87.2225879,1021.69296 C87.5798677,1021.26868 88.2170592,1021.21136 88.6457949,1021.56492 C89.0745307,1021.91848 89.1324572,1022.54905 88.7751774,1022.97333 L82.6000038,1030.30647 C82.2195991,1030.75821 81.5293418,1030.78919 81.1091711,1030.37339 L77.404067,1026.70682 C77.0094386,1026.3163 77.0094386,1025.68313 77.404067,1025.29261 C77.7986954,1024.90208 78.4385145,1024.90208 78.833143,1025.29261 L81.7558045,1028.18487 L87.2225879,1021.69296 Z M65.3046891,1020.09091 C65.862778,1020.09091 66.3151984,1020.53862 66.3151984,1021.09091 C66.3151984,1021.64319 65.862778,1022.09091 65.3046891,1022.09091 L53.0105093,1022.09091 C52.4524204,1022.09091 52,1021.64319 52,1021.09091 C52,1020.53862 52.4524204,1020.09091 53.0105093,1020.09091 L65.3046891,1020.09091 Z M65.3046891,1029.09091 C65.862778,1029.09091 66.3151984,1029.53862 66.3151984,1030.09091 C66.3151984,1030.64319 65.862778,1031.09091 65.3046891,1031.09091 L53.0105093,1031.09091 C52.4524204,1031.09091 52,1030.64319 52,1030.09091 C52,1029.53862 52.4524204,1029.09091 53.0105093,1029.09091 L65.3046891,1029.09091 Z M71.899171,1038 C72.4572599,1038 72.9096804,1038.44772 72.9096804,1039 C72.9096804,1039.55228 72.4572599,1040 71.899171,1040 L53.0105093,1040 C52.4524204,1040 52,1039.55228 52,1039 C52,1038.44772 52.4524204,1038 53.0105093,1038 L71.899171,1038 Z M71.899171,1011 C72.4572599,1011 72.9096804,1011.44772 72.9096804,1012 C72.9096804,1012.55228 72.4572599,1013 71.899171,1013 L53.0105093,1013 C52.4524204,1013 52,1012.55228 52,1012 C52,1011.44772 52.4524204,1011 53.0105093,1011 L71.899171,1011 Z" id="Lists" fill="#F0F1EF" fill-rule="nonzero"></path>
        <path d="M93,942.133216 C93,940.947469 92.0856304,940 90.9762419,940 L55.0237581,940 C53.9141169,940 53,940.947298 53,942.133216 L53,944.283297 C53.0025459,944.371889 53.0025459,944.371889 53.0016799,944.380428 L53.0016799,954.815361 L55.2799376,954.815361 C55.8322224,954.815361 56.2799376,955.263077 56.2799376,955.815361 L56.2799376,959.866784 C56.2799376,961.052919 57.1938446,962 58.3032757,962 L58.600612,962 C59.7104204,962 60.6243701,961.052966 60.6243701,959.866784 L60.6243701,955.815361 C60.6243701,955.263077 61.0720853,954.815361 61.6243701,954.815361 L84.2076434,954.815361 C84.7599281,954.815361 85.2076434,955.263077 85.2076434,955.815361 L85.2076434,959.866784 C85.2076434,961.052795 86.1218456,962 87.2314015,962 L87.5287377,962 C88.6382936,962 89.5524958,961.052795 89.5524958,959.866784 L89.5524958,955.815361 C89.5524958,955.263077 90.0002111,954.815361 90.5524958,954.815361 L92.9981388,954.815361 L92.9962409,944.350747 C92.9973126,944.324001 92.9985656,944.299747 93,944.277984 L93,942.133216 Z M54.2799376,956.815361 L52.0016799,956.815361 C51.4493951,956.815361 51.0016799,956.367646 51.0016799,955.815361 L51.0034387,944.321144 C51.001758,944.341753 51.0006118,943.612444 51,942.133216 C51,939.85837 52.7932766,938 55.0237581,938 L90.9762419,938 C93.2064262,938 95,939.8585 95,942.133216 L95,944.29557 C94.9981979,944.372994 94.9981222,944.376244 94.9958064,944.4079 L94.9983201,955.815141 C94.9984418,956.367512 94.5506909,956.815361 93.9983201,956.815361 L91.5524958,956.815361 L91.5524958,959.866784 C91.5524958,962.141806 89.7590448,964 87.5287377,964 L87.2314015,964 C85.0010944,964 83.2076434,962.141806 83.2076434,959.866784 L83.2076434,956.815361 L62.6243701,956.815361 L62.6243701,959.866784 C62.6243701,962.141935 60.8312162,964 58.600612,964 L58.3032757,964 C56.0730042,964 54.2799376,962.141847 54.2799376,959.866784 L54.2799376,956.815361 Z M94.9954888,944.412233 L94.99507,944.418421 C94.9948721,944.421991 94.9948721,944.421991 94.9958003,944.380208 L94.9958064,944.407899 C94.9957049,944.409287 94.9955992,944.410729 94.9954888,944.412233 Z M56.9200852,939.391718 L55.0799148,938.608282 L58.3663019,930.889809 C59.232066,928.442934 61.1697697,927 63.6641684,927 L82.2040655,927 C84.6130693,927 86.3635825,928.37979 87.4426122,930.829042 L90.9129292,938.591882 L89.0870708,939.408118 L85.6145574,931.640329 C84.8291733,929.857639 83.7411027,929 82.2040655,929 L63.6641684,929 C62.0379125,929 60.8420952,929.89048 60.2516582,931.56117 L60.2156239,931.651012 L56.9200852,939.391718 Z M62,947.5 C62,946.671592 61.3284265,946 60.4998153,946 C59.6715393,946 59,946.671627 59,947.5 C59,948.328373 59.6715393,949 60.4998153,949 C61.3284265,949 62,948.328408 62,947.5 Z M64,947.5 C64,949.432964 62.4330086,951 60.4998153,951 C58.5669114,951 57,949.432884 57,947.5 C57,945.567116 58.5669114,944 60.4998153,944 C62.4330086,944 64,945.567036 64,947.5 Z M87,947.5 C87,946.671592 86.3284265,946 85.4998153,946 C84.6715393,946 84,946.671627 84,947.5 C84,948.328373 84.6715393,949 85.4998153,949 C86.3284265,949 87,948.328408 87,947.5 Z M89,947.5 C89,949.432964 87.4330086,951 85.4998153,951 C83.5669114,951 82,949.432884 82,947.5 C82,945.567116 83.5669114,944 85.4998153,944 C87.4330086,944 89,945.567036 89,947.5 Z" id="Traffic-Information" fill="#F0F1EF" fill-rule="nonzero"></path>
        <path d="M70.0986372,891.906007 C70.7930819,891.628297 71.5686209,891.290472 72.4047901,890.891412 C74.7954817,889.750461 77.1862486,888.350593 79.4133343,886.684831 C84.8210839,882.640073 88.376903,877.718205 89.2606984,871.86581 C89.2784077,871.747511 89.2784077,871.747511 89.2821851,871.720455 C89.2983199,871.601031 89.2983199,871.601031 89.3075989,871.531189 C89.3286971,871.372216 89.3392118,871.289368 89.3498866,871.193869 C89.3662924,871.052261 89.3803165,870.916764 89.3909217,870.801099 C89.3952352,870.737258 89.3994456,870.688352 89.4081458,870.595177 C89.4241463,870.383615 89.4357691,870.179126 89.4501706,869.848661 C89.4593172,869.585444 89.4637198,869.387133 89.4637198,869.194581 C89.4637198,859.564998 81.6939534,851.760002 72.1118609,851.760002 C62.5291988,851.760002 54.7600019,859.564686 54.7600019,869.194581 C54.7600019,876.929547 59.8178855,883.67194 67.0822478,885.885947 C68.9108157,886.487254 69.519378,887.157818 69.5193779,888.730185 L69.5209903,892.13012 C69.6725384,892.073551 69.8663031,891.998918 70.0986372,891.906007 Z M53,869.194581 C53,858.594455 61.5553766,850 72.1118609,850 C82.6677625,850 91.2237218,858.594754 91.2237218,869.194581 C91.2237218,869.410962 91.2189047,869.627941 91.2088112,869.917447 C91.1933482,870.273094 91.1806898,870.495803 91.1619326,870.742254 C91.1533558,870.835373 91.1499396,870.875054 91.1453932,870.939148 C91.1318724,871.08968 91.1162967,871.240168 91.0986024,871.392834 C91.0865906,871.500368 91.0749323,871.592228 91.0523027,871.762739 C91.0430479,871.832404 91.0430479,871.832404 91.0329209,871.909199 C91.0081258,872.083934 91.0081258,872.083934 90.9991373,872.140215 C90.0384835,878.502131 86.2136832,883.796316 80.4674907,888.094214 C78.1403788,889.834791 75.6516483,891.29202 73.1628425,892.479796 C72.2911876,892.895791 71.48089,893.248757 70.7521479,893.540183 C70.4956384,893.642762 70.2671609,893.730474 70.0692432,893.803499 C69.9481707,893.84817 69.8627483,893.878494 69.8420691,893.885086 C68.7733664,894.289201 67.7611361,893.58465 67.7611362,892.441984 L67.7593761,888.730602 C67.7593761,888.009383 67.6998882,887.941939 66.5597423,887.566626 C58.5638235,885.125175 53,877.705008 53,869.194581 Z M83.5697374,869.129461 C83.5697374,862.811618 78.4473149,857.689448 72.1297249,857.689448 C65.8115686,857.689448 60.6897124,862.811305 60.6897124,869.129461 C60.6897124,875.447617 65.8115686,880.569473 72.1297249,880.569473 C78.4473149,880.569473 83.5697374,875.447304 83.5697374,869.129461 Z M85.3297393,869.129461 C85.3297393,876.419345 79.4193176,882.329475 72.1297249,882.329475 C64.8395464,882.329475 58.9297105,876.419639 58.9297105,869.129461 C58.9297105,861.839282 64.8395464,855.929446 72.1297249,855.929446 C79.4193176,855.929446 85.3297393,861.839577 85.3297393,869.129461 Z M75.5441227,865.558411 C75.8877844,865.214749 76.4449702,865.214749 76.788632,865.558411 C77.1322937,865.902073 77.1322937,866.459259 76.788632,866.80292 L71.5086262,872.082926 C71.1649644,872.426588 70.6077786,872.426588 70.2641169,872.082926 L67.4701138,869.288923 C67.1264521,868.945261 67.1264521,868.388075 67.4701138,868.044414 C67.8137756,867.700752 68.3709614,867.700752 68.7146231,868.044414 L70.8863715,870.216162 L75.5441227,865.558411 Z" id="Skills" fill="#FFFFFF" fill-rule="nonzero"></path>
        <path d="M58.5022171,798.866702 C58.2938571,798.486531 58.3510857,797.999733 58.6735106,797.678237 L63.7144855,792.651791 C64.0766392,792.290681 64.6528947,792.261017 65.0502134,792.583032 L71.3401697,797.680854 L80.8310624,789 L77,789 C76.4477153,789 76,788.552285 76,788 C76,787.447715 76.4477153,787 77,787 L83.0000001,787 C83.5522849,787 84.0000001,787.447715 84.0000001,788 L84.0000001,794 C84,794.552285 83.5522848,795 83,795 C82.4477153,795 82,794.552285 82.0000001,794 L82.0000001,790.641244 L72.0545122,799.737895 C71.6892466,800.071985 71.1345202,800.088565 70.7499539,799.776885 L64.489716,794.703148 L60.6563727,798.525444 C63.4312703,802.538346 68.0035127,805 73,805 C81.2842712,805 88,798.284271 88,790 C88,781.715729 81.2842712,775 73,775 C64.7157288,775 58,781.715729 58,790 C58,791.486098 58.2158317,792.942135 58.6358934,794.335794 C58.7952747,794.864581 58.495812,795.422452 57.9670247,795.581834 C57.4382374,795.741215 56.8803664,795.441752 56.7209851,794.912965 C56.2446526,793.332613 56,791.682146 56,790 C56,780.611159 63.6111593,773 73,773 C82.3888407,773 90,780.611159 90,790 C90,799.388841 82.3888407,807 73,807 C67.0611113,807 61.6486593,803.929251 58.5644682,798.982707 C58.5409073,798.944919 58.5201761,798.906168 58.5022171,798.866702 Z M73,810 C84.045695,810 93,801.045695 93,790 C93,778.954305 84.045695,770 73,770 C61.954305,770 53,778.954305 53,790 C53,801.045695 61.954305,810 73,810 Z M73,812 C60.8497355,812 51,802.150264 51,790 C51,777.849736 60.8497355,768 73,768 C85.1502645,768 95,777.849736 95,790 C95,802.150264 85.1502645,812 73,812 Z" id="News-and-Information" fill="#F0F1EF" fill-rule="nonzero"></path>
        <path d="M83.7858831,706.203614 C84.2283172,706.53763 84.3146053,707.164958 83.978613,707.604789 C83.6426206,708.044621 83.0115813,708.130401 82.5691471,707.796386 C79.2455714,705.28725 76.2959772,704 73.1183432,704 C69.6979857,704 66.9038333,705.202667 63.6905944,707.778448 C63.2581252,708.125122 62.6248421,708.057634 62.2761169,707.627709 C61.9273918,707.197783 61.9952797,706.568225 62.4277488,706.221552 C65.9697216,703.382252 69.1811032,702 73.1183432,702 C76.8115777,702 80.1444696,703.454527 83.7858831,706.203614 Z M77.87694,714.317199 C78.2562717,714.720701 78.2347423,715.353504 77.8288528,715.730605 C77.4229633,716.107705 76.7864158,716.086302 76.4070841,715.682801 C75.3260069,714.532839 74.3368592,714 73.1183432,714 C71.8248699,714 70.8921113,714.496517 69.8460693,715.664852 C69.4767088,716.077395 68.840872,716.114163 68.4258881,715.746975 C68.0109043,715.379787 67.9739193,714.74769 68.3432798,714.335148 C69.7433487,712.771396 71.1924957,712 73.1183432,712 C74.9682232,712 76.4478545,712.797056 77.87694,714.317199 Z M80.8549815,710.277268 C81.2564971,710.658968 81.27073,711.291975 80.8867716,711.691129 C80.5028132,712.090282 79.8660607,712.104432 79.4645451,711.722732 C77.5415,709.894593 75.5358132,709 73.1183432,709 C70.7587912,709 68.7049676,709.921288 66.7649406,711.72951 C66.3596595,712.107256 65.7230783,712.086868 65.3430967,711.68397 C64.9631151,711.281073 64.9836244,710.648237 65.3889055,710.27049 C67.6803847,708.134694 70.2099532,707 73.1183432,707 C76.0854773,707 78.5761667,708.110918 80.8549815,710.277268 Z M73.7948521,688.301174 C73.3552663,687.899609 72.6447337,687.899609 72.2051479,688.301174 L68.830376,691.384048 C68.7413789,691.46491 67.7924932,692.33161 66.0092481,693.960798 C65.3681228,694.546545 65.3681228,694.546545 65.0067966,694.876666 C64.695699,695.160899 64.695699,695.160899 64.2060557,695.608265 C63.6411963,696.124355 63.6411963,696.124355 63.4221334,696.324499 C63.3296366,696.409006 63.3296366,696.409006 63.2110651,696.517334 L55.3392678,703.708274 C55.1291073,703.899234 55.0118343,704.160313 55.0118343,704.432578 L55.0118343,720.8649 C55.0118343,723.68658 57.5212399,726 60.6331361,726 L85.3668639,726 C88.4793714,726 90.9881657,723.687043 90.9881657,720.8649 L90.9881657,704.432578 C90.9881657,704.161438 90.8706862,703.900073 90.6587574,703.706475 L73.7948521,688.301174 Z M93,704.432578 L93,720.8649 C93,724.826697 89.5580141,728 85.3668639,728 L60.6331361,728 C56.4426149,728 53,724.826254 53,720.8649 L53,704.432578 C53,703.595152 53.357378,702.799538 53.9799896,702.233815 L61.8497704,695.044713 C61.9682984,694.936424 61.9682984,694.936424 62.0607919,694.85192 C62.2798199,694.651808 62.2798199,694.651808 62.8446801,694.135717 C63.3343269,693.688348 63.3343269,693.688348 63.6454234,693.404116 C64.0067746,693.073973 64.0067746,693.073973 64.6479072,692.488219 C66.4382483,690.852548 67.3818384,689.990685 67.4711139,689.909574 L70.8438949,686.828514 C72.0531741,685.723829 73.9468259,685.723829 75.1561051,686.828514 L92.0200104,702.233815 C92.6431567,702.803064 93,703.596957 93,704.432578 Z" id="Smart-Home" fill="#F0F1EF" fill-rule="nonzero"></path>
        <path d="M53.5250944,614.74108 L56.1230886,616.241076 C56.2750883,616.329076 56.4480879,616.375076 56.6230875,616.375076 C56.9790867,616.375076 57.311086,616.183076 57.4890856,615.875077 C57.765085,615.397078 57.6010853,614.78408 57.1230864,614.50908 L54.5250922,613.009084 C54.3730925,612.921084 54.2000929,612.874084 54.0250933,612.874084 C53.6690941,612.874084 53.3370948,613.066084 53.1590952,613.375083 C52.8840958,613.853082 53.0480954,614.46508 53.5250944,614.74108 L53.5250944,614.74108 Z M56.713446,625.750054 C56.5354464,625.441055 56.2034472,625.250055 55.8474479,625.250055 C55.6724483,625.250055 55.4994487,625.296055 55.3474491,625.384055 L52.7494548,626.884051 C52.2724559,627.159051 52.1084563,627.772049 52.3834556,628.250048 C52.5614552,628.558048 52.8934545,628.750047 53.2504537,628.750047 C53.4244533,628.750047 53.5974529,628.704047 53.7494526,628.616047 L56.3474468,627.116051 C56.8254458,626.840052 56.9894454,626.228053 56.713446,625.750054 L56.713446,625.750054 Z M59.5000811,621.500064 C59.5000811,622.967061 59.9530801,624.362057 60.8140782,625.557055 C60.915078,625.514055 61.0150777,625.474055 61.1160775,625.437055 C61.9140757,623.710059 63.3730725,622.398062 65.1760685,621.784063 C65.7640672,619.10307 67.4790634,616.772075 69.8700581,615.370078 C68.8390604,614.79908 67.6890629,614.50008 66.5000656,614.50008 C62.6400741,614.50008 59.5000811,617.640073 59.5000811,621.500064 L59.5000811,621.500064 Z M94.0000044,626.851052 C94.0000044,622.910061 90.7730116,619.704068 86.8070204,619.704068 C85.5730232,619.704068 84.3550259,620.020067 83.2850283,620.619066 C83.1370286,620.702066 82.968029,620.746066 82.7970293,620.746066 C82.7030295,620.746066 82.6090298,620.733066 82.51503,620.706066 C82.2580305,620.630066 82.039031,620.451066 81.9140313,620.215067 C80.5330344,617.615073 77.8410404,616.000077 74.8880469,616.000077 C70.9850556,616.000077 67.6090631,618.88907 67.0360644,622.719061 C66.9750645,623.12606 66.6780652,623.450059 66.278066,623.545059 C64.6750696,623.927058 63.3720725,625.072056 62.7930738,626.608052 C62.6770741,626.913051 62.4200746,627.143051 62.1050753,627.224051 C60.5710787,627.61605 59.5000811,628.986047 59.5000811,630.555043 C59.5000811,632.455038 61.0560777,634.000035 62.9680734,634.000035 L86.8070204,634.000035 C90.7730116,634.000035 94.0000044,630.793042 94.0000044,626.851052 L94.0000044,626.851052 Z M96,626.851052 C96,631.89604 91.8760092,636.00003 86.8070204,636.00003 L62.9680734,636.00003 C59.9530801,636.00003 57.5000856,633.557036 57.5000856,630.555043 C57.5000856,629.078046 58.0960842,627.68505 59.1500819,626.663052 C58.0690843,625.138055 57.5000856,623.36206 57.5000856,621.500064 C57.5000856,616.537075 61.5370766,612.500085 66.5000656,612.500085 C68.4980611,612.500085 70.4550568,613.183083 72.0400532,614.42908 C72.9780512,614.144081 73.935049,614.000081 74.8880469,614.000081 C78.2710394,614.000081 81.3400326,615.653078 83.1840285,618.444071 C84.3240259,617.959072 85.5670232,617.704073 86.8070204,617.704073 C91.8760092,617.704073 96,621.807063 96,626.851052 L96,626.851052 Z M55.9999889,620.999965 C55.9999889,620.448966 55.5509899,619.999967 54.9999911,619.999967 L51.9999978,619.999967 C51.448999,619.999967 51,620.448966 51,620.999965 C51,621.550964 51.448999,621.999963 51.9999978,621.999963 L54.9999911,621.999963 C55.5509899,621.999963 55.9999889,621.550964 55.9999889,620.999965 L55.9999889,620.999965 Z M70.7498592,611.714087 C70.9018589,611.802087 71.0748585,611.848086 71.2488581,611.848086 C71.6058573,611.848086 71.9378566,611.657087 72.1158562,611.349088 L73.6158528,608.750094 C73.8908522,608.272095 73.7268526,607.660096 73.2498537,607.384097 C73.096854,607.296097 72.9248544,607.250097 72.7498548,607.250097 C72.3938556,607.250097 72.0618563,607.441097 71.8838567,607.750096 L70.38386,610.34809 C70.1078606,610.826089 70.2728603,611.439087 70.7498592,611.714087 L70.7498592,611.714087 Z M59.5090811,611.697987 C59.6870807,612.006986 60.01908,612.197985 60.3750792,612.197985 C60.5500788,612.197985 60.7230784,612.151986 60.8740781,612.064986 C61.352077,611.788986 61.5160766,611.175988 61.2410772,610.697989 L59.7410806,608.099995 C59.562081,607.790996 59.2300817,607.599996 58.8740825,607.599996 C58.7000829,607.599996 58.5270833,607.645996 58.3750836,607.733996 C57.8980847,608.009995 57.733085,608.621994 58.0090844,609.099993 L59.5090811,611.697987 Z M66.5000656,609.999991 L66.5000656,606.999998 C66.5000656,606.448999 66.0510666,606 65.5000678,606 C64.949069,606 64.50007,606.448999 64.50007,606.999998 L64.50007,609.999991 C64.50007,610.550989 64.949069,610.999988 65.5000678,610.999988 C66.0510666,610.999988 66.5000656,610.550989 66.5000656,609.999991 Z M68.7200606,638.758024 C68.6550608,638.499024 68.4940611,638.280025 68.2650616,638.143025 C68.109062,638.049025 67.9310624,638.000026 67.7500628,638.000026 L67.7500628,638.000026 C67.4000636,638.000026 67.0720643,638.186025 66.8920647,638.486024 L63.8920714,643.486013 C63.609072,643.958012 63.7630716,644.57401 64.2350706,644.85801 C64.3910702,644.951009 64.5690698,645.000009 64.7490694,645.000009 C65.0990687,645.000009 65.4280679,644.81401 65.6070675,644.51501 L68.6070609,639.515022 C68.7450606,639.286023 68.7850605,639.017023 68.7200606,638.758024 L68.7200606,638.758024 Z M73.2190506,638.753024 C73.1530508,638.494024 72.9890511,638.276025 72.7590516,638.140025 C72.605052,638.048025 72.4290524,638.000026 72.2500528,638.000026 L72.2500528,638.000026 C71.8990536,638.000026 71.5690543,638.188025 71.3900547,638.490024 L67.3900636,645.240009 C67.2530639,645.470008 67.215064,645.739008 67.2810638,645.998007 C67.3470637,646.257006 67.5100633,646.475006 67.7400628,646.611006 C67.8940625,646.702005 68.0700621,646.750005 68.2490617,646.750005 C68.6010609,646.750005 68.9310602,646.562006 69.1100598,646.260006 L73.1100509,639.510022 C73.2460506,639.281023 73.2850505,639.012023 73.2190506,638.753024 L73.2190506,638.753024 Z M77.2650416,638.143025 C77.109042,638.049025 76.9310424,638.000026 76.7500428,638.000026 C76.4010436,638.000026 76.0720443,638.186025 75.8920447,638.486024 L72.8920514,643.486013 C72.7550517,643.715012 72.7150517,643.983012 72.7800516,644.243011 C72.8440515,644.50201 73.0060511,644.72001 73.2350506,644.85801 C73.3910502,644.951009 73.5690498,645.000009 73.7490494,645.000009 C74.0990487,645.000009 74.4280479,644.81401 74.6070475,644.51501 L77.6070409,639.515022 C77.8910402,639.042023 77.7370406,638.426025 77.2650416,638.143025 L77.2650416,638.143025 Z M81.7540317,638.136025 C81.600032,638.047025 81.4270324,638.001026 81.2510328,638.001026 L81.2510328,638.001026 C80.8970336,638.001026 80.5650343,638.190025 80.3860347,638.495024 L75.1360464,647.496003 C74.859047,647.973002 75.0210466,648.587001 75.4960456,648.864 C75.6500452,648.953 75.8230448,649 75.9990444,649 C76.3530437,649 76.6840429,648.81 76.8630425,648.505001 L82.1140309,639.504022 C82.3910302,639.027023 82.2290306,638.414025 81.7540317,638.136025 L81.7540317,638.136025 Z M86.6170209,639.499022 L82.7060295,646.294006 C82.5280299,646.603006 82.1960307,646.795005 81.8390315,646.795005 C81.6660319,646.795005 81.4940322,646.749005 81.3400326,646.661005 C80.8630336,646.386006 80.698034,645.773008 80.9730334,645.296009 L84.8830247,638.501024 C85.0620243,638.192025 85.3940236,638.000026 85.7510228,638.000026 L85.7510228,638.000026 C85.9240224,638.000026 86.096022,638.046025 86.2490217,638.134025 C86.7270206,638.409025 86.8920202,639.022023 86.6170209,639.499022 L86.6170209,639.499022 Z" id="Weather" fill="#F0F1EF"></path>
        <path d="M66,571 C65.4477153,571 65,570.549264 65,569.993254 C65,569.437243 65.4477153,568.986508 66,568.986508 L82,568.986508 C82.5522847,568.986508 83,569.437243 83,569.993254 C83,570.549264 82.5522847,571 82,571 L66,571 Z M74.3571429,548.783333 C77.1882699,548.783333 79.4285714,546.535564 79.4285714,543.698413 C79.4285714,540.861261 77.1882699,538.613492 74.3571429,538.613492 C71.5260158,538.613492 69.2857143,540.861261 69.2857143,543.698413 C69.2857143,546.535564 71.5260158,548.783333 74.3571429,548.783333 Z M74.3571429,550.796825 C70.4229637,550.796825 67.2857143,547.649118 67.2857143,543.698413 C67.2857143,539.747707 70.4229637,536.6 74.3571429,536.6 C78.291322,536.6 81.4285714,539.747707 81.4285714,543.698413 C81.4285714,547.649118 78.291322,550.796825 74.3571429,550.796825 Z M74,528 C82.8279061,528 90,534.771094 90,543.168079 C90,549.656929 87.0748463,555.543508 82.2277658,560.721698 C80.5449377,562.519482 78.7444041,564.10304 76.9430145,565.460594 C76.3113699,565.93661 75.7238204,566.35095 75.1949397,566.701969 C74.8735624,566.915268 74.6402542,567.061724 74.5095977,567.13963 C74.1953561,567.327002 73.8046439,567.327002 73.4904023,567.13963 C73.3597458,567.061724 73.1264376,566.915268 72.8050603,566.701969 C72.2761796,566.35095 71.6886301,565.93661 71.0569855,565.460594 C69.2555959,564.10304 67.4550623,562.519482 65.7722342,560.721698 C60.9251537,555.543508 58,549.656929 58,543.168079 C58,534.771094 65.1720939,528 74,528 Z M74,565.083122 C74.0302914,565.063188 74.0616723,565.042451 74.0941228,565.020914 C74.5906327,564.691379 75.1456613,564.299973 75.7444855,563.84869 C77.4587209,562.556817 79.1738123,561.048406 80.7722342,559.340794 C85.3001537,554.503567 88,549.070396 88,543.168079 C88,535.913065 81.7510413,530.013492 74,530.013492 C66.2489587,530.013492 60,535.913065 60,543.168079 C60,549.070396 62.6998463,554.503567 67.2277658,559.340794 C68.8261877,561.048406 70.5412791,562.556817 72.2555145,563.84869 C72.8543387,564.299973 73.4093673,564.691379 73.9058772,565.020914 C73.9383277,565.042451 73.9697086,565.063188 74,565.083122 Z" id="Navigation" fill="#F0F1EF" fill-rule="nonzero"></path>
        <path d="M90.3710729,478.72962 C91.2166218,479.571371 91.2085881,480.785013 90.352997,481.680748 C89.398993,482.684452 88.2079942,483.934083 86.9426836,485.017762 C86.1714466,485.679567 85.0587766,485.917497 84.6149137,485.987476 C83.6247579,486.145429 78.4410011,484.781832 76.0067844,483.448226 C67.4488658,478.767609 61.0018068,472.149564 56.8664502,463.804029 C55.7095948,461.470718 55.0829647,459.049433 55.0026276,456.606155 C54.9644674,455.424504 55.3420522,454.418801 56.1293566,453.619038 C57.0371667,452.69731 57.9469854,451.779581 58.8809051,450.887844 C60.3611177,449.48226 61.4918636,450.004105 62.1787465,450.689903 C62.3193366,450.829862 62.4639435,450.999811 62.6125673,451.199752 C64.3076819,453.47508 66.0027965,455.752407 67.6878689,458.035733 C68.8869014,459.655255 68.7784462,460.826908 67.3062673,462.206501 L66.673612,462.782331 C66.0630494,463.32617 65.9043835,463.939989 66.173513,464.709761 C66.4225583,465.427549 66.7659998,466.10335 67.1616604,466.661185 C69.1741068,469.508344 71.6043067,471.909635 74.3679058,473.793078 C74.9563757,474.19296 75.6834272,474.53286 76.4707316,474.776788 C77.0752689,474.964732 77.6155365,474.798781 78.1196523,474.268938 L78.4530516,473.907045 C78.6759873,473.661117 78.898923,473.41519 79.1379261,473.189257 C80.1501746,472.237538 81.3974094,472.131569 82.4719193,472.90534 C85.0286502,474.742798 87.5632883,476.606247 90.0878843,478.485692 C90.1923227,478.565668 90.2887273,478.647644 90.3710729,478.72962 Z M66.6615614,474.066997 C69.6019024,476.994133 73.0724687,479.561374 76.9748474,481.696743 C79.254415,482.944375 83.7693648,484.008061 84.3698852,484.006061 C84.8519084,483.924086 85.3761085,483.724145 85.6351959,483.50221 C86.7358153,482.560488 87.7219543,481.54079 88.8968856,480.305155 L88.9511132,480.145202 L88.8828266,480.089218 C86.3682727,478.215772 83.8416683,476.36032 81.2949795,474.528861 C81.0700354,474.366909 80.895302,474.288932 80.5157088,474.646826 C80.3148659,474.83477 80.1300904,475.04071 79.9453148,475.246649 L79.5757638,475.64853 C78.5514647,476.724212 77.1997916,477.102101 75.8702112,476.690222 C74.8981312,476.388312 73.9863042,475.958439 73.2351515,475.450589 C70.2666926,473.427186 67.6677846,470.855946 65.518765,467.818843 C65.0166576,467.109053 64.5868536,466.261303 64.275547,465.369567 C63.7392963,463.830021 64.1148727,462.384448 65.3359979,461.29677 L65.9325015,460.748931 C66.6615614,460.067133 66.6635698,460.023146 66.0710831,459.221383 C64.3860107,456.936058 62.6929045,454.66073 60.9997984,452.387401 C60.9174527,452.277434 60.8371156,452.181462 60.7607952,452.103485 C60.7005423,452.003515 60.582045,452.035505 60.2707384,452.333417 C59.3508776,453.209159 58.4571265,454.112892 57.5633753,455.018624 C57.1657062,455.422505 56.9889644,455.908361 57.0110572,456.542174 C57.0833606,458.699537 57.6396956,460.844903 58.6680116,462.92029 C60.7387025,467.097056 63.4279897,470.847948 66.6615614,474.066997 Z" id="Communication" fill="#FFFFFF" fill-rule="nonzero"></path>
        <path d="M66.0045334,379.663049 C65.9615586,379.22828 66.2052789,378.799501 66.6283535,378.629019 L87.696928,370.139246 C88.8657719,369.66825 89.9997341,370.442444 89.9997341,371.703833 L89.9997341,378.730073 C90.0000895,378.745531 90.0000878,378.760962 89.9997341,378.776355 L89.9997341,399.897302 C89.9997341,400.453368 89.5520223,400.904149 88.9997419,400.904149 C88.4474614,400.904149 87.9997497,400.453368 87.9997497,399.897302 L87.9997497,380.240969 L67.9999061,388.300087 L67.9999061,409.558221 C67.9999061,410.114287 67.5521944,410.565067 66.999914,410.565067 C66.4476335,410.565067 65.9999218,410.114287 65.9999218,409.558221 L65.9999218,387.642007 C65.9995664,387.62655 65.999568,387.611119 65.9999218,387.595726 L65.9999218,379.760372 C65.9999218,379.72754 66.0014825,379.695076 66.0045334,379.663049 Z M67.9999061,380.245315 L67.9999061,386.131112 L87.9997497,378.071994 L87.9997497,372.186197 L67.9999061,380.245315 Z M61.9999531,415 C58.6862705,415 56,412.295317 56,408.958921 C56,405.622525 58.6862705,402.917842 61.9999531,402.917842 C65.3136356,402.917842 67.9999061,405.622525 67.9999061,408.958921 C67.9999061,412.295317 65.3136356,415 61.9999531,415 Z M61.9999531,412.986307 C64.2090748,412.986307 65.9999218,411.183185 65.9999218,408.958921 C65.9999218,406.734657 64.2090748,404.931535 61.9999531,404.931535 C59.7908313,404.931535 57.9999844,406.734657 57.9999844,408.958921 C57.9999844,411.183185 59.7908313,412.986307 61.9999531,412.986307 Z M83.999781,405.938381 C80.6860984,405.938381 77.9998279,403.233698 77.9998279,399.897302 C77.9998279,396.560906 80.6860984,393.856223 83.999781,393.856223 C87.3134636,393.856223 89.9997341,396.560906 89.9997341,399.897302 C89.9997341,403.233698 87.3134636,405.938381 83.999781,405.938381 Z M83.999781,403.924688 C86.2089027,403.924688 87.9997497,402.121566 87.9997497,399.897302 C87.9997497,397.673038 86.2089027,395.869916 83.999781,395.869916 C81.7906593,395.869916 79.9998123,397.673038 79.9998123,399.897302 C79.9998123,402.121566 81.7906593,403.924688 83.999781,403.924688 Z" id="Entertainment" fill="#F0F1EF" fill-rule="nonzero"></path>
        <path d="M91.997693,297.614681 L86.017006,296.881037 L83.2465353,291.011885 L80.4753353,296.881037 L74.4953775,297.614681 L78.8709564,302.016544 L77.4124301,308.619339 L83.2465353,304.95112 L89.0806404,308.619339 L87.6221142,302.016544 L91.997693,297.614681 Z M91.0328895,308.1829 C91.4176952,309.924928 89.5249466,311.27121 88.0207105,310.325415 L83.2465353,307.323631 L78.47236,310.325415 C76.9681239,311.27121 75.0753753,309.924928 75.4601811,308.1829 L76.6805565,302.658222 L73.0812546,299.037298 C71.9025269,297.85149 72.5985708,295.820597 74.2532843,295.617591 L79.1410013,295.017947 L81.440096,290.148672 C82.1632852,288.617023 84.3300281,288.617134 85.053062,290.148858 L87.3514636,295.017946 L92.2397572,295.617587 C93.8944871,295.820571 94.5905532,297.85148 93.411816,299.037298 L89.8125141,302.658222 L91.0328895,308.1829 Z M69.9706191,303.60069 C70.3611184,303.207845 70.9942428,303.207845 71.384742,303.60069 C71.7752413,303.993535 71.7752413,304.630463 71.384742,305.023308 L68.3591708,308.067054 C67.9686715,308.459899 67.3355471,308.459899 66.9450479,308.067054 C66.5545486,307.674209 66.5545486,307.037281 66.9450479,306.644436 L69.9706191,303.60069 Z M63.6801694,309.928927 C64.0706687,309.536082 64.7037931,309.536082 65.0942924,309.928927 C65.4847916,310.321772 65.4847916,310.9587 65.0942924,311.351545 L57.7808291,318.708941 C57.3903298,319.101786 56.7572054,319.101786 56.3667061,318.708941 C55.9762069,318.316096 55.9762069,317.679169 56.3667061,317.286323 L63.6801694,309.928927 Z M72.2434096,312.224382 C72.6339089,311.831537 73.2670333,311.831537 73.6575325,312.224382 C74.0480318,312.617227 74.0480318,313.254155 73.6575325,313.647 L61.7066129,325.66971 C61.3161136,326.062555 60.6829892,326.062555 60.2924899,325.66971 C59.9019907,325.276865 59.9019907,324.639938 60.2924899,324.247093 L72.2434096,312.224382 Z M56.8716241,327.688508 C57.2621233,327.295663 57.8952477,327.295663 58.285747,327.688508 C58.6762463,328.081353 58.6762463,328.718281 58.285747,329.111126 L55.7069974,331.705366 C55.3164981,332.098211 54.6833737,332.098211 54.2928744,331.705366 C53.9023752,331.312521 53.9023752,330.675594 54.2928744,330.282748 L56.8716241,327.688508 Z M81.182485,314.236268 C81.5729842,313.843423 82.2061086,313.843423 82.5966079,314.236268 C82.9871072,314.629113 82.9871072,315.26604 82.5966079,315.658885 L75.4759143,322.822354 C75.0854151,323.215199 74.4522907,323.215199 74.0617914,322.822354 C73.6712921,322.429509 73.6712921,321.792581 74.0617914,321.399736 L81.182485,314.236268 Z M70.2435378,325.240926 C70.634037,324.848081 71.2671614,324.848081 71.6576607,325.240926 C72.04816,325.633771 72.04816,326.270699 71.6576607,326.663544 L68.7993698,329.539005 C68.4088706,329.93185 67.7757462,329.93185 67.3852469,329.539005 C66.9947476,329.14616 66.9947476,328.509232 67.3852469,328.116387 L70.2435378,325.240926 Z" id="Alexa's-Talents" fill="#F0F1EF" fill-rule="nonzero"></path>
        <path d="M78.5297088,246 C78.7668067,245.88188 79.0025522,245.764292 79.2237986,245.653742 C79.6085403,245.46149 79.9069663,245.31176 80.0959258,245.216002 C80.8507929,244.833459 81.7647207,244.967424 82.3780431,245.550518 L84.9994611,248.042738 L84.9999813,232.557279 C84.8856967,232.366973 84.7815803,232.193919 84.7605716,232.163851 C84.7754419,232.18295 84.7983707,232.208671 84.8321737,232.240293 C84.7632604,232.175826 84.698996,232.106563 84.6398624,232.033023 L82.3997737,229.247175 C82.1141181,228.891925 81.9583922,228.44975 81.9583922,227.993896 L81.9583932,225.439157 C81.9632391,220.390296 75.6063245,209 72.9997307,209 C70.4026115,209 64.0358758,220.372019 64.0358758,225.351385 L64.0358758,227.993896 C64.0358758,228.447906 63.8814049,228.888406 63.5978563,229.242983 L61.3975837,231.99442 C61.3948385,231.997853 61.2720551,237.337934 61.0292337,248.014664 L63.62219,245.550297 C64.235076,244.967805 65.1480486,244.833665 65.9025825,245.215247 C66.0926053,245.311345 66.3915959,245.461278 66.7687152,245.649739 C67.0016433,245.766138 67.1685466,245.849421 67.4705882,246 L78.5297088,246 Z M77,248 L69,248 L69,248.938757 C69.002322,248.978868 71.6689887,248.999282 77,249 L77,248 Z M87,232 L86.9994194,249.286821 C87.0167307,249.898872 86.6456908,250.439282 86.0553737,250.65759 C85.8816832,250.722462 85.7039533,250.753487 85.5285317,250.753487 C85.1297936,250.753487 84.7460586,250.592154 84.4633066,250.292615 L81,247 C80.4257228,247.291026 79,248 79,248 L79,249 C78.9434496,250.154154 78.4349175,251 77,251 L69,251 C67.9462754,251 67.0748498,250.181231 67,249 L67,248 C67,248 65.5754698,247.291026 65,247 L61.5355778,250.292615 C61.2534028,250.592154 60.8696679,250.753487 60.4715068,250.753487 C60.2960852,250.753487 60.1177783,250.722462 59.9440877,250.658718 C59.3537707,250.439282 58.9827308,249.898872 59.0006191,249.281179 L59.3907016,231.738154 C59.4016654,231.356256 59.5597757,231.005949 59.8356033,230.745333 L62.0358758,227.993896 L62.0358758,225.351385 C62.0358758,220.030205 68.6413099,207 72.9997307,207 C77.3581516,207 83.9635856,220.030205 83.9583922,225.441077 L83.9583922,227.993896 L86.1984809,230.779744 C86.4396857,231.005385 86.597796,231.355692 87,232 Z M61.247123,232.162236 C61.2346343,232.174677 61.2219794,232.186955 61.2091612,232.199066 C61.2238279,232.185208 61.2377548,232.170454 61.2508851,232.154896 L61.247123,232.162236 Z M85.9176852,248.919741 C85.9115006,248.91319 85.9051373,248.906806 85.8986058,248.900594 L85.9176852,248.919741 Z M84.9994194,249.286753 L84.9994201,249.264142 C84.9991794,249.271727 84.9991769,249.279268 84.9994194,249.286753 Z M66,217 L66,215 L79.84211,215 L79.84211,217 L66,217 Z M65.9939847,245.890481 L64.0060153,246.109519 L62.022739,228.109519 L64.0107083,227.890481 L65.9939847,245.890481 Z M82.0107083,246.109519 L83.9939847,228.109519 L82.0060153,227.890481 L80.022739,245.890481 L82.0107083,246.109519 Z M80.022739,245.890481 L82.0107083,246.109519 L83.9939847,228.109519 L82.0060153,227.890481 L80.022739,245.890481 Z M73,241 C70.2385763,241 68,238.761424 68,236 C68,233.238576 70.2385763,231 73,231 C75.7614237,231 78,233.238576 78,236 C78,238.761424 75.7614237,241 73,241 Z M73,239 C74.6568542,239 76,237.656854 76,236 C76,234.343146 74.6568542,233 73,233 C71.3431458,233 70,234.343146 70,236 C70,237.656854 71.3431458,239 73,239 Z" id="Getting-Started" fill="#F0F1EF" fill-rule="nonzero"></path>
        <text id="Things-to-Try-icons" font-family="AmazonEmber-Bold, Amazon Ember" font-size="48" font-weight="bold" fill="#FFFFFF">
            <tspan x="50" y="119">Things to Try icons</tspan>
        </text>
        <text id="AMAZON-ALEXA-AUTO" font-family="AmazonEmber-Regular, Amazon Ember" font-size="20" font-weight="normal" letter-spacing="1" fill="#FFFFFF">
            <tspan x="50" y="67">AMAZON ALEXA AUTO</tspan>
        </text>
        <text id="May-15,-2018" font-family="Bookerly-Bold, Bookerly" font-size="18" font-weight="bold" fill="#FFC400">
            <tspan x="50" y="151">May 15, 2018</tspan>
        </text>
        <text id="Any-modification-req" font-family="AmazonEmber-Medium, Amazon Ember" font-size="15" font-weight="400" fill="#FFFFFF">
            <tspan x="566" y="104">Any modification require </tspan>
            <tspan x="566" y="122">Amazon approval.</tspan>
        </text>
    </g>
</svg>