<svg height="984" viewBox="0 0 1091 984" width="1091" xmlns="http://www.w3.org/2000/svg"><g fill="none" fill-rule="evenodd"><g transform="translate(45 284)"><path d="m0 0h300v300h-300z" fill="#1b222a"/><path d="m112.5 120.5 70.5 57.5-34 30v-115l34 30-70.5 57.5" stroke="#fff" stroke-linecap="round" stroke-linejoin="round" stroke-width="3"/></g><g transform="translate(395 284)"><path d="m0 0h300v300h-300z" fill="#1b222a"/><path d="m136 134.33151v-16.794l58-21.8689996v16.7939996zm44.5 46.668c-7.444 0-13.5-6.055-13.5-13.5 0-7.444 6.056-13.5 13.5-13.5s13.5 6.056 13.5 13.5c0 7.445-6.056 13.5-13.5 13.5zm-61 24c-7.444 0-13.5-6.055-13.5-13.5 0-7.444 6.056-13.5 13.5-13.5s13.5 6.056 13.5 13.5c0 7.445-6.056 13.5-13.5 13.5zm76.854-112.7329996c-.407-.28-.922-.344-1.383-.17l-61 22.9999996c-.584.22-.971.779-.971 1.403v65.544c-2.988-4.252-7.92-7.044-13.5-7.044-9.098 0-16.5 7.403-16.5 16.5 0 9.098 7.402 16.5 16.5 16.5s16.5-7.402 16.5-16.5v-53.962l58-21.869v42.375c-2.988-4.252-7.92-7.044-13.5-7.044-9.098 0-16.5 7.403-16.5 16.5 0 9.098 7.402 16.5 16.5 16.5s16.5-7.402 16.5-16.5v-73.9999996c0-.492-.242-.953-.646-1.233z" fill="#fff"/></g><g transform="translate(745 284)"><path d="m0 0h300v300h-300z" fill="#1b222a"/><path d="m159.021 169.848v26c0 4.963-4.037 9-9 9s-9-4.037-9-9v-26c0-4.963 4.037-9 9-9s9 4.037 9 9m3 26v-26c0-6.617-5.383-12-12-12s-12 5.383-12 12v26c0 6.617 5.383 12 12 12s12-5.383 12-12m-3-54c0 4.963-4.037 9-9 9s-9-4.037-9-9 4.037-9 9-9 9 4.037 9 9m3 0c0-6.617-5.383-12-12-12s-12 5.383-12 12 5.383 12 12 12 12-5.383 12-12m11.196 23.37c12.79-12.79 12.79-33.602 0-46.392-12.791-12.79-33.601-12.79-46.392 0-12.79 12.79-12.79 33.602 0 46.392.586.586 1.535.586 2.121 0s.586-1.535 0-2.121c-11.62-11.621-11.62-30.529 0-42.15 11.622-11.621 30.53-11.62 42.15 0 11.62 11.621 11.62 30.529 0 42.15-.586.586-.586 1.535 0 2.121.293.293.677.44 1.061.44s.767-.147 1.06-.44m11.114 12.614c-.384 0-.768-.146-1.061-.439-.586-.586-.586-1.535 0-2.121 8.881-8.882 13.772-20.69 13.772-33.25s-4.891-24.368-13.772-33.249-20.689-13.773-33.249-13.773-24.368 4.892-33.249 13.773-13.772 20.689-13.772 33.249 4.891 24.368 13.772 33.25c.586.586.586 1.535 0 2.121s-1.535.586-2.121 0c-9.448-9.448-14.651-22.01-14.651-35.371 0-13.362 5.203-25.923 14.651-35.37 9.447-9.449 22.009-14.652 35.37-14.652s25.923 5.203 35.37 14.652c9.448 9.447 14.651 22.008 14.651 35.37 0 13.361-5.203 25.923-14.651 35.371-.293.293-.677.439-1.06.439" fill="#fff"/></g><g transform="translate(45 634)"><path d="m0 0h300v300h-300z" fill="#1b222a"/><path d="m173.218 118.825c12.79 12.79 12.79 33.603 0 46.393-.293.293-.677.439-1.061.439-.383 0-.767-.146-1.06-.439-.586-.586-.586-1.536 0-2.122 11.62-11.621 11.62-30.529 0-42.15-11.62-11.619-30.528-11.621-42.15 0-11.621 11.621-11.621 30.529 0 42.15.585.586.585 1.536 0 2.122-.586.586-1.536.586-2.122 0-12.79-12.79-12.79-33.603 0-46.393 12.791-12.789 33.602-12.789 46.393 0zm26.825 23.196c0 13.362-5.203 25.923-14.651 35.371-.293.293-.677.44-1.061.44s-.767-.147-1.06-.44c-.586-.586-.586-1.535 0-2.121 8.881-8.882 13.772-20.689 13.772-33.25 0-12.559-4.891-24.368-13.772-33.249s-20.69-13.772-33.249-13.772c-12.56 0-24.368 4.891-33.249 13.772s-13.773 20.69-13.773 33.249c0 12.561 4.892 24.368 13.773 33.25.586.586.586 1.535 0 2.121s-1.535.586-2.121 0c-9.449-9.448-14.652-22.009-14.652-35.371 0-13.361 5.203-25.923 14.652-35.37 9.447-9.448 22.008-14.651 35.37-14.651 13.361 0 25.923 5.203 35.37 14.651 9.448 9.447 14.651 22.009 14.651 35.37zm-68.107 47.826 4.003-12.008c.028.002.054.008.083.008h28c.028 0 .055-.006.082-.008l4.003 12.008zm18.086-54.256 8.085 24.256h-16.171zm-9.086 27.256h18.171l4 12h-26.171zm10.509-32.474c-.011-.033-.029-.061-.042-.093-.02-.048-.039-.095-.063-.14s-.052-.087-.08-.128c-.026-.039-.052-.077-.081-.113-.033-.04-.068-.076-.105-.112-.032-.032-.064-.064-.099-.093-.041-.034-.084-.063-.128-.092-.037-.024-.073-.049-.112-.07-.052-.028-.106-.051-.161-.072-.027-.011-.05-.026-.078-.035-.01-.004-.02-.004-.031-.007-.054-.017-.11-.028-.167-.039-.043-.008-.087-.018-.131-.023-.042-.004-.085-.002-.128-.003-.058 0-.115-.002-.172.004-.032.003-.064.012-.097.017-.066.012-.133.024-.197.045-.009.002-.017.003-.026.006-.023.007-.043.02-.066.029-.06.024-.12.048-.177.08-.035.019-.067.041-.1.063-.048.031-.094.062-.138.099-.033.027-.062.057-.092.086-.039.038-.077.077-.112.119-.027.034-.051.071-.076.107-.029.043-.058.086-.083.133-.024.044-.043.091-.062.138-.013.032-.031.06-.042.094l-25 75c-.262.786.163 1.636.948 1.897.157.053.317.077.475.077.628 0 1.214-.397 1.423-1.025l4.494-13.483c.028.002.054.008.083.008h38c.028 0 .055-.006.082-.008l4.495 13.483c.209.628.795 1.025 1.423 1.025.157 0 .317-.024.474-.077.785-.261 1.21-1.111.949-1.897z" fill="#fff"/></g><g transform="translate(395 634)"><path d="m0 0h300v300h-300z" fill="#1b222a"/><path d="m191.205885 112.098237c-6.225-5.447-14.271-11.624-18.213-14.6009996v17.2839996c.021.014.042.03.063.046.733.56 18.001 13.759 20.729 16.239 1.132 1.028 2.105 2.273 2.911 3.508.211-9.345.305-17.405-5.49-22.476m-21.213 62.229c0-9.098-7.402-16.5-16.5-16.5s-16.5 7.402-16.5 16.5c0 9.097 7.402 16.5 16.5 16.5s16.5-7.403 16.5-16.5m29.692-39.259c-.041 1.832-.083 3.705-.083 5.606 0 .73-.526 1.354-1.245 1.478-.719.123-1.422-.287-1.669-.975-.018-.051-1.84-5.091-4.92-7.891-2.138-1.942-14.199-11.22-18.775-14.729v55.77c0 10.751-8.748 19.5-19.5 19.5s-19.5-8.749-19.5-19.5c0-10.752 8.748-19.5 19.5-19.5 6.95 0 13.046 3.666 16.5 9.155v-69.4819996c0-.566.318-1.084.824-1.339s1.112-.205 1.567.132c.121.09 12.174 8.9999996 20.798 16.5469996 6.938 6.071 6.727 15.376 6.503 25.228m-89.285 7.492c-.686-.463-1.619-.279-2.081.409-12.1610005 18.118-9.9750005 48.607.021 62.745.292.413.755.634 1.225.634.3 0 .602-.089.866-.275.675-.478.837-1.414.358-2.091-9.443-13.359-11.4910005-42.19.021-59.341.461-.688.278-1.62-.41-2.081m15.011 14.602c-6.365 9.484-5.331 26.786-.02 34.298.478.677.317 1.614-.359 2.091-.264.187-.565.276-.865.276-.471 0-.934-.221-1.226-.634-5.884-8.324-7.206-26.998-.02-37.702.462-.689 1.394-.872 2.081-.41.687.461.871 1.394.409 2.081" fill="#fff"/></g><g transform="translate(745 634)"><path d="m0 0h300v300h-300z" fill="#1b222a"/><path d="m192.5 145.5c0 .828-.672 1.5-1.5 1.5h-32c-.828 0-1.5-.672-1.5-1.5s.672-1.5 1.5-1.5h32c.828 0 1.5.672 1.5 1.5zm0 22c0 .828-.672 1.5-1.5 1.5h-32c-.828 0-1.5-.672-1.5-1.5s.672-1.5 1.5-1.5h32c.828 0 1.5.672 1.5 1.5zm0-11c0 .828-.672 1.5-1.5 1.5h-32c-.828 0-1.5-.672-1.5-1.5s.672-1.5 1.5-1.5h32c.828 0 1.5.672 1.5 1.5zm-50 11c0 .828-.672 1.5-1.5 1.5h-32c-.828 0-1.5-.672-1.5-1.5s.672-1.5 1.5-1.5h32c.828 0 1.5.672 1.5 1.5zm0-22c0 .828-.672 1.5-1.5 1.5h-20c-.828 0-1.5-.672-1.5-1.5s.672-1.5 1.5-1.5h20c.828 0 1.5.672 1.5 1.5zm0 11c0 .828-.672 1.5-1.5 1.5h-32c-.828 0-1.5-.672-1.5-1.5s.672-1.5 1.5-1.5h32c.828 0 1.5.672 1.5 1.5zm55.5 23.5c0 1.879-1.121 3-3 3h-35c-3.822 0-6.666 2.54-8.5 4.652v-73.652c0-1.879 1.121-3 3-3h40.5c1.879 0 3 1.121 3 3zm-58 3h-35c-1.879 0-3-1.121-3-3v-66c0-1.879 1.121-3 3-3h40.5c1.879 0 3 1.121 3 3v73.65c-1.834-2.112-4.679-4.65-8.5-4.65zm55-75h-40.5c-1.866 0-3.435.689-4.5 1.86-1.065-1.171-2.634-1.86-4.5-1.86h-40.5c-3.532 0-6 2.468-6 6v66c0 3.533 2.468 6 6 6h35c3.498 0 6.105 3.38 7.506 5.195.896 1.162 1.39 1.802 2.328 1.802.01 0 .059-.001.129-.009.114.015.192.013.204.009.937 0 1.431-.64 2.327-1.802 1.402-1.815 4.009-5.195 7.506-5.195h35c3.532 0 6-2.467 6-6v-66c0-3.532-2.468-6-6-6z" fill="#fff"/></g><text fill="#151920" font-family="Bookerly-Bold, Bookerly" font-size="48" font-weight="bold"><tspan x="45" y="145">Alexa Default Media Images</tspan></text><text fill="#008296" font-family="Bookerly-Bold, Bookerly" font-size="18" font-weight="bold"><tspan x="46" y="177">August 1, 2018</tspan></text><text fill="#272f38" font-family="AmazonEmber-Medium, Amazon Ember" font-size="15" font-weight="400"><tspan x="854" y="139">Any modification require </tspan><tspan x="854" y="157">Amazon approval.</tspan></text></g></svg>