<?xml version="1.0" encoding="UTF-8"?>
<svg width="40px" height="43px" viewBox="0 0 40 43" version="1.1" xmlns="http://www.w3.org/2000/svg" xmlns:xlink="http://www.w3.org/1999/xlink">
    <!-- Generator: Sketch 51.3 (57544) - http://www.bohemiancoding.com/sketch -->
    <title>Alexa's Talents</title>
    <desc>Created with Sketch.</desc>
    <defs></defs>
    <g id="Page-1" stroke="none" stroke-width="1" fill="none" fill-rule="evenodd">
        <g id="icons-things-to-try" transform="translate(-54.000000, -289.000000)" fill="#F0F1EF" fill-rule="nonzero">
            <path d="M91.997693,297.614681 L86.017006,296.881037 L83.2465353,291.011885 L80.4753353,296.881037 L74.4953775,297.614681 L78.8709564,302.016544 L77.4124301,308.619339 L83.2465353,304.95112 L89.0806404,308.619339 L87.6221142,302.016544 L91.997693,297.614681 Z M91.0328895,308.1829 C91.4176952,309.924928 89.5249466,311.27121 88.0207105,310.325415 L83.2465353,307.323631 L78.47236,310.325415 C76.9681239,311.27121 75.0753753,309.924928 75.4601811,308.1829 L76.6805565,302.658222 L73.0812546,299.037298 C71.9025269,297.85149 72.5985708,295.820597 74.2532843,295.617591 L79.1410013,295.017947 L81.440096,290.148672 C82.1632852,288.617023 84.3300281,288.617134 85.053062,290.148858 L87.3514636,295.017946 L92.2397572,295.617587 C93.8944871,295.820571 94.5905532,297.85148 93.411816,299.037298 L89.8125141,302.658222 L91.0328895,308.1829 Z M69.9706191,303.60069 C70.3611184,303.207845 70.9942428,303.207845 71.384742,303.60069 C71.7752413,303.993535 71.7752413,304.630463 71.384742,305.023308 L68.3591708,308.067054 C67.9686715,308.459899 67.3355471,308.459899 66.9450479,308.067054 C66.5545486,307.674209 66.5545486,307.037281 66.9450479,306.644436 L69.9706191,303.60069 Z M63.6801694,309.928927 C64.0706687,309.536082 64.7037931,309.536082 65.0942924,309.928927 C65.4847916,310.321772 65.4847916,310.9587 65.0942924,311.351545 L57.7808291,318.708941 C57.3903298,319.101786 56.7572054,319.101786 56.3667061,318.708941 C55.9762069,318.316096 55.9762069,317.679169 56.3667061,317.286323 L63.6801694,309.928927 Z M72.2434096,312.224382 C72.6339089,311.831537 73.2670333,311.831537 73.6575325,312.224382 C74.0480318,312.617227 74.0480318,313.254155 73.6575325,313.647 L61.7066129,325.66971 C61.3161136,326.062555 60.6829892,326.062555 60.2924899,325.66971 C59.9019907,325.276865 59.9019907,324.639938 60.2924899,324.247093 L72.2434096,312.224382 Z M56.8716241,327.688508 C57.2621233,327.295663 57.8952477,327.295663 58.285747,327.688508 C58.6762463,328.081353 58.6762463,328.718281 58.285747,329.111126 L55.7069974,331.705366 C55.3164981,332.098211 54.6833737,332.098211 54.2928744,331.705366 C53.9023752,331.312521 53.9023752,330.675594 54.2928744,330.282748 L56.8716241,327.688508 Z M81.182485,314.236268 C81.5729842,313.843423 82.2061086,313.843423 82.5966079,314.236268 C82.9871072,314.629113 82.9871072,315.26604 82.5966079,315.658885 L75.4759143,322.822354 C75.0854151,323.215199 74.4522907,323.215199 74.0617914,322.822354 C73.6712921,322.429509 73.6712921,321.792581 74.0617914,321.399736 L81.182485,314.236268 Z M70.2435378,325.240926 C70.634037,324.848081 71.2671614,324.848081 71.6576607,325.240926 C72.04816,325.633771 72.04816,326.270699 71.6576607,326.663544 L68.7993698,329.539005 C68.4088706,329.93185 67.7757462,329.93185 67.3852469,329.539005 C66.9947476,329.14616 66.9947476,328.509232 67.3852469,328.116387 L70.2435378,325.240926 Z" id="Alexa's-Talents"></path>
        </g>
    </g>
</svg>