<?xml version="1.0" encoding="UTF-8"?>
<svg width="42px" height="47px" viewBox="0 0 42 47" version="1.1" xmlns="http://www.w3.org/2000/svg" xmlns:xlink="http://www.w3.org/1999/xlink">
    <!-- Generator: Sketch 51.3 (57544) - http://www.bohemiancoding.com/sketch -->
    <title>Calendar</title>
    <desc>Created with Sketch.</desc>
    <defs></defs>
    <g id="Page-1" stroke="none" stroke-width="1" fill="none" fill-rule="evenodd">
        <g id="icons-things-to-try" transform="translate(-52.000000, -1329.000000)" fill="#FFFFFF" fill-rule="nonzero">
            <path d="M90.8479,1333.27273 L84.55,1333.27273 L84.55,1330.06818 C84.55,1329.47855 84.0796,1329 83.5,1329 C82.9204,1329 82.45,1329.47855 82.45,1330.06818 L82.45,1333.27273 L63.55,1333.27273 L63.55,1330.06818 C63.55,1329.47855 63.0796,1329 62.5,1329 C61.9204,1329 61.45,1329.47855 61.45,1330.06818 L61.45,1333.27273 L55.1521,1333.27273 C53.4133,1333.27273 52,1334.7105 52,1336.47941 L52,1372.79332 C52,1374.56009 53.4175,1376 55.1584,1376 L79.2916,1376 L79.3,1376 C80.7448,1376 82.6054,1375.21595 83.6302,1374.17555 L92.2066,1365.45064 C93.2293,1364.40809 94,1362.51527 94,1361.04545 L94,1361.03691 L94,1336.48582 C94,1334.71477 92.5867,1333.27273 90.8479,1333.27273 Z M82.45,1372.35323 L82.45,1365.30964 C82.45,1364.72641 82.9183,1364.25 83.4916,1364.25 L90.4153,1364.25 L82.45,1372.35323 Z M91.9,1361.03691 C91.9,1361.63082 91.4317,1362.11364 90.8584,1362.11364 L83.4916,1362.11364 C81.7591,1362.11364 80.35,1363.54714 80.35,1365.30964 L80.35,1372.804 C80.35,1373.38723 79.8754,1373.86364 79.2916,1373.86364 L55.1584,1373.86364 C54.5746,1373.86364 54.1,1373.38295 54.1,1372.79332 L54.1,1336.47941 C54.1,1335.88977 54.5725,1335.40909 55.1521,1335.40909 L61.45,1335.40909 L61.45,1338.81018 C60.2299,1339.25241 59.35,1340.42741 59.35,1341.81818 C59.35,1343.58495 60.7633,1345.02273 62.5,1345.02273 C64.2367,1345.02273 65.65,1343.58495 65.65,1341.81818 C65.65,1340.42741 64.7701,1339.25241 63.55,1338.81018 L63.55,1335.40909 L82.45,1335.40909 L82.45,1338.81018 C81.2299,1339.25241 80.35,1340.42741 80.35,1341.81818 C80.35,1343.58495 81.7633,1345.02273 83.5,1345.02273 C85.2367,1345.02273 86.65,1343.58495 86.65,1341.81818 C86.65,1340.42741 85.7701,1339.25241 84.55,1338.81018 L84.55,1335.40909 L90.8479,1335.40909 C91.4275,1335.40909 91.9,1335.89191 91.9,1336.48582 L91.9,1361.03691 Z M62.5,1340.75 C63.0796,1340.75 63.55,1341.22855 63.55,1341.81818 C63.55,1342.40782 63.0796,1342.88636 62.5,1342.88636 C61.9204,1342.88636 61.45,1342.40782 61.45,1341.81818 C61.45,1341.22855 61.9204,1340.75 62.5,1340.75 Z M83.5,1340.75 C84.0796,1340.75 84.55,1341.22855 84.55,1341.81818 C84.55,1342.40782 84.0796,1342.88636 83.5,1342.88636 C82.9204,1342.88636 82.45,1342.40782 82.45,1341.81818 C82.45,1341.22855 82.9204,1340.75 83.5,1340.75 Z" id="Calendar"></path>
        </g>
    </g>
</svg>