<?xml version="1.0" encoding="UTF-8"?>
<svg width="36px" height="36px" viewBox="0 0 36 36" version="1.1" xmlns="http://www.w3.org/2000/svg" xmlns:xlink="http://www.w3.org/1999/xlink">
    <!-- Generator: Sketch 51.3 (57544) - http://www.bohemiancoding.com/sketch -->
    <title>Communication</title>
    <desc>Created with Sketch.</desc>
    <defs></defs>
    <g id="Page-1" stroke="none" stroke-width="1" fill="none" fill-rule="evenodd">
        <g id="icons-things-to-try" transform="translate(-55.000000, -450.000000)" fill="#FFFFFF" fill-rule="nonzero">
            <path d="M90.3710729,478.72962 C91.2166218,479.571371 91.2085881,480.785013 90.352997,481.680748 C89.398993,482.684452 88.2079942,483.934083 86.9426836,485.017762 C86.1714466,485.679567 85.0587766,485.917497 84.6149137,485.987476 C83.6247579,486.145429 78.4410011,484.781832 76.0067844,483.448226 C67.4488658,478.767609 61.0018068,472.149564 56.8664502,463.804029 C55.7095948,461.470718 55.0829647,459.049433 55.0026276,456.606155 C54.9644674,455.424504 55.3420522,454.418801 56.1293566,453.619038 C57.0371667,452.69731 57.9469854,451.779581 58.8809051,450.887844 C60.3611177,449.48226 61.4918636,450.004105 62.1787465,450.689903 C62.3193366,450.829862 62.4639435,450.999811 62.6125673,451.199752 C64.3076819,453.47508 66.0027965,455.752407 67.6878689,458.035733 C68.8869014,459.655255 68.7784462,460.826908 67.3062673,462.206501 L66.673612,462.782331 C66.0630494,463.32617 65.9043835,463.939989 66.173513,464.709761 C66.4225583,465.427549 66.7659998,466.10335 67.1616604,466.661185 C69.1741068,469.508344 71.6043067,471.909635 74.3679058,473.793078 C74.9563757,474.19296 75.6834272,474.53286 76.4707316,474.776788 C77.0752689,474.964732 77.6155365,474.798781 78.1196523,474.268938 L78.4530516,473.907045 C78.6759873,473.661117 78.898923,473.41519 79.1379261,473.189257 C80.1501746,472.237538 81.3974094,472.131569 82.4719193,472.90534 C85.0286502,474.742798 87.5632883,476.606247 90.0878843,478.485692 C90.1923227,478.565668 90.2887273,478.647644 90.3710729,478.72962 Z M66.6615614,474.066997 C69.6019024,476.994133 73.0724687,479.561374 76.9748474,481.696743 C79.254415,482.944375 83.7693648,484.008061 84.3698852,484.006061 C84.8519084,483.924086 85.3761085,483.724145 85.6351959,483.50221 C86.7358153,482.560488 87.7219543,481.54079 88.8968856,480.305155 L88.9511132,480.145202 L88.8828266,480.089218 C86.3682727,478.215772 83.8416683,476.36032 81.2949795,474.528861 C81.0700354,474.366909 80.895302,474.288932 80.5157088,474.646826 C80.3148659,474.83477 80.1300904,475.04071 79.9453148,475.246649 L79.5757638,475.64853 C78.5514647,476.724212 77.1997916,477.102101 75.8702112,476.690222 C74.8981312,476.388312 73.9863042,475.958439 73.2351515,475.450589 C70.2666926,473.427186 67.6677846,470.855946 65.518765,467.818843 C65.0166576,467.109053 64.5868536,466.261303 64.275547,465.369567 C63.7392963,463.830021 64.1148727,462.384448 65.3359979,461.29677 L65.9325015,460.748931 C66.6615614,460.067133 66.6635698,460.023146 66.0710831,459.221383 C64.3860107,456.936058 62.6929045,454.66073 60.9997984,452.387401 C60.9174527,452.277434 60.8371156,452.181462 60.7607952,452.103485 C60.7005423,452.003515 60.582045,452.035505 60.2707384,452.333417 C59.3508776,453.209159 58.4571265,454.112892 57.5633753,455.018624 C57.1657062,455.422505 56.9889644,455.908361 57.0110572,456.542174 C57.0833606,458.699537 57.6396956,460.844903 58.6680116,462.92029 C60.7387025,467.097056 63.4279897,470.847948 66.6615614,474.066997 Z" id="Communication"></path>
        </g>
    </g>
</svg>