<?xml version="1.0" encoding="UTF-8"?>
<svg width="34px" height="45px" viewBox="0 0 34 45" version="1.1" xmlns="http://www.w3.org/2000/svg" xmlns:xlink="http://www.w3.org/1999/xlink">
    <!-- Generator: Sketch 51.3 (57544) - http://www.bohemiancoding.com/sketch -->
    <title>Entertainment</title>
    <desc>Created with Sketch.</desc>
    <defs></defs>
    <g id="Page-1" stroke="none" stroke-width="1" fill="none" fill-rule="evenodd">
        <g id="icons-things-to-try" transform="translate(-56.000000, -370.000000)" fill="#F0F1EF" fill-rule="nonzero">
            <path d="M66.0045334,379.663049 C65.9615586,379.22828 66.2052789,378.799501 66.6283535,378.629019 L87.696928,370.139246 C88.8657719,369.66825 89.9997341,370.442444 89.9997341,371.703833 L89.9997341,378.730073 C90.0000895,378.745531 90.0000878,378.760962 89.9997341,378.776355 L89.9997341,399.897302 C89.9997341,400.453368 89.5520223,400.904149 88.9997419,400.904149 C88.4474614,400.904149 87.9997497,400.453368 87.9997497,399.897302 L87.9997497,380.240969 L67.9999061,388.300087 L67.9999061,409.558221 C67.9999061,410.114287 67.5521944,410.565067 66.999914,410.565067 C66.4476335,410.565067 65.9999218,410.114287 65.9999218,409.558221 L65.9999218,387.642007 C65.9995664,387.62655 65.999568,387.611119 65.9999218,387.595726 L65.9999218,379.760372 C65.9999218,379.72754 66.0014825,379.695076 66.0045334,379.663049 Z M67.9999061,380.245315 L67.9999061,386.131112 L87.9997497,378.071994 L87.9997497,372.186197 L67.9999061,380.245315 Z M61.9999531,415 C58.6862705,415 56,412.295317 56,408.958921 C56,405.622525 58.6862705,402.917842 61.9999531,402.917842 C65.3136356,402.917842 67.9999061,405.622525 67.9999061,408.958921 C67.9999061,412.295317 65.3136356,415 61.9999531,415 Z M61.9999531,412.986307 C64.2090748,412.986307 65.9999218,411.183185 65.9999218,408.958921 C65.9999218,406.734657 64.2090748,404.931535 61.9999531,404.931535 C59.7908313,404.931535 57.9999844,406.734657 57.9999844,408.958921 C57.9999844,411.183185 59.7908313,412.986307 61.9999531,412.986307 Z M83.999781,405.938381 C80.6860984,405.938381 77.9998279,403.233698 77.9998279,399.897302 C77.9998279,396.560906 80.6860984,393.856223 83.999781,393.856223 C87.3134636,393.856223 89.9997341,396.560906 89.9997341,399.897302 C89.9997341,403.233698 87.3134636,405.938381 83.999781,405.938381 Z M83.999781,403.924688 C86.2089027,403.924688 87.9997497,402.121566 87.9997497,399.897302 C87.9997497,397.673038 86.2089027,395.869916 83.999781,395.869916 C81.7906593,395.869916 79.9998123,397.673038 79.9998123,399.897302 C79.9998123,402.121566 81.7906593,403.924688 83.999781,403.924688 Z" id="Entertainment"></path>
        </g>
    </g>
</svg>