<?xml version="1.0" encoding="UTF-8"?>
<svg width="28px" height="44px" viewBox="0 0 28 44" version="1.1" xmlns="http://www.w3.org/2000/svg" xmlns:xlink="http://www.w3.org/1999/xlink">
    <!-- Generator: Sketch 51.3 (57544) - http://www.bohemiancoding.com/sketch -->
    <title>Getting Started</title>
    <desc>Created with Sketch.</desc>
    <defs></defs>
    <g id="Page-1" stroke="none" stroke-width="1" fill="none" fill-rule="evenodd">
        <g id="icons-things-to-try" transform="translate(-59.000000, -207.000000)" fill="#F0F1EF" fill-rule="nonzero">
            <path d="M78.5297088,246 C78.7668067,245.88188 79.0025522,245.764292 79.2237986,245.653742 C79.6085403,245.46149 79.9069663,245.31176 80.0959258,245.216002 C80.8507929,244.833459 81.7647207,244.967424 82.3780431,245.550518 L84.9994611,248.042738 L84.9999813,232.557279 C84.8856967,232.366973 84.7815803,232.193919 84.7605716,232.163851 C84.7754419,232.18295 84.7983707,232.208671 84.8321737,232.240293 C84.7632604,232.175826 84.698996,232.106563 84.6398624,232.033023 L82.3997737,229.247175 C82.1141181,228.891925 81.9583922,228.44975 81.9583922,227.993896 L81.9583932,225.439157 C81.9632391,220.390296 75.6063245,209 72.9997307,209 C70.4026115,209 64.0358758,220.372019 64.0358758,225.351385 L64.0358758,227.993896 C64.0358758,228.447906 63.8814049,228.888406 63.5978563,229.242983 L61.3975837,231.99442 C61.3948385,231.997853 61.2720551,237.337934 61.0292337,248.014664 L63.62219,245.550297 C64.235076,244.967805 65.1480486,244.833665 65.9025825,245.215247 C66.0926053,245.311345 66.3915959,245.461278 66.7687152,245.649739 C67.0016433,245.766138 67.1685466,245.849421 67.4705882,246 L78.5297088,246 Z M77,248 L69,248 L69,248.938757 C69.002322,248.978868 71.6689887,248.999282 77,249 L77,248 Z M87,232 L86.9994194,249.286821 C87.0167307,249.898872 86.6456908,250.439282 86.0553737,250.65759 C85.8816832,250.722462 85.7039533,250.753487 85.5285317,250.753487 C85.1297936,250.753487 84.7460586,250.592154 84.4633066,250.292615 L81,247 C80.4257228,247.291026 79,248 79,248 L79,249 C78.9434496,250.154154 78.4349175,251 77,251 L69,251 C67.9462754,251 67.0748498,250.181231 67,249 L67,248 C67,248 65.5754698,247.291026 65,247 L61.5355778,250.292615 C61.2534028,250.592154 60.8696679,250.753487 60.4715068,250.753487 C60.2960852,250.753487 60.1177783,250.722462 59.9440877,250.658718 C59.3537707,250.439282 58.9827308,249.898872 59.0006191,249.281179 L59.3907016,231.738154 C59.4016654,231.356256 59.5597757,231.005949 59.8356033,230.745333 L62.0358758,227.993896 L62.0358758,225.351385 C62.0358758,220.030205 68.6413099,207 72.9997307,207 C77.3581516,207 83.9635856,220.030205 83.9583922,225.441077 L83.9583922,227.993896 L86.1984809,230.779744 C86.4396857,231.005385 86.597796,231.355692 87,232 Z M61.247123,232.162236 C61.2346343,232.174677 61.2219794,232.186955 61.2091612,232.199066 C61.2238279,232.185208 61.2377548,232.170454 61.2508851,232.154896 L61.247123,232.162236 Z M85.9176852,248.919741 C85.9115006,248.91319 85.9051373,248.906806 85.8986058,248.900594 L85.9176852,248.919741 Z M84.9994194,249.286753 L84.9994201,249.264142 C84.9991794,249.271727 84.9991769,249.279268 84.9994194,249.286753 Z M66,217 L66,215 L79.84211,215 L79.84211,217 L66,217 Z M65.9939847,245.890481 L64.0060153,246.109519 L62.022739,228.109519 L64.0107083,227.890481 L65.9939847,245.890481 Z M82.0107083,246.109519 L83.9939847,228.109519 L82.0060153,227.890481 L80.022739,245.890481 L82.0107083,246.109519 Z M80.022739,245.890481 L82.0107083,246.109519 L83.9939847,228.109519 L82.0060153,227.890481 L80.022739,245.890481 Z M73,241 C70.2385763,241 68,238.761424 68,236 C68,233.238576 70.2385763,231 73,231 C75.7614237,231 78,233.238576 78,236 C78,238.761424 75.7614237,241 73,241 Z M73,239 C74.6568542,239 76,237.656854 76,236 C76,234.343146 74.6568542,233 73,233 C71.3431458,233 70,234.343146 70,236 C70,237.656854 71.3431458,239 73,239 Z" id="Getting-Started"></path>
        </g>
    </g>
</svg>