<?xml version="1.0" encoding="UTF-8"?>
<svg width="43px" height="29px" viewBox="0 0 43 29" version="1.1" xmlns="http://www.w3.org/2000/svg" xmlns:xlink="http://www.w3.org/1999/xlink">
    <!-- Generator: Sketch 51.3 (57544) - http://www.bohemiancoding.com/sketch -->
    <title>Lists</title>
    <desc>Created with Sketch.</desc>
    <defs></defs>
    <g id="Page-1" stroke="none" stroke-width="1" fill="none" fill-rule="evenodd">
        <g id="icons-things-to-try" transform="translate(-52.000000, -1011.000000)" fill="#F0F1EF" fill-rule="nonzero">
            <path d="M82.8741783,1037.99943 C76.177272,1037.99943 70.7483567,1032.62697 70.7483567,1025.99971 C70.7483567,1019.37245 76.177272,1014 82.8741783,1014 C89.5710847,1014 95,1019.37245 95,1025.99971 C95,1032.62697 89.5710847,1037.99943 82.8741783,1037.99943 Z M82.8741783,1035.99943 C88.454907,1035.99943 92.9789814,1031.5224 92.9789814,1025.99971 C92.9789814,1020.47702 88.454907,1016 82.8741783,1016 C77.2934497,1016 72.7693753,1020.47702 72.7693753,1025.99971 C72.7693753,1031.5224 77.2934497,1035.99943 82.8741783,1035.99943 Z M87.2225879,1021.69296 C87.5798677,1021.26868 88.2170592,1021.21136 88.6457949,1021.56492 C89.0745307,1021.91848 89.1324572,1022.54905 88.7751774,1022.97333 L82.6000038,1030.30647 C82.2195991,1030.75821 81.5293418,1030.78919 81.1091711,1030.37339 L77.404067,1026.70682 C77.0094386,1026.3163 77.0094386,1025.68313 77.404067,1025.29261 C77.7986954,1024.90208 78.4385145,1024.90208 78.833143,1025.29261 L81.7558045,1028.18487 L87.2225879,1021.69296 Z M65.3046891,1020.09091 C65.862778,1020.09091 66.3151984,1020.53862 66.3151984,1021.09091 C66.3151984,1021.64319 65.862778,1022.09091 65.3046891,1022.09091 L53.0105093,1022.09091 C52.4524204,1022.09091 52,1021.64319 52,1021.09091 C52,1020.53862 52.4524204,1020.09091 53.0105093,1020.09091 L65.3046891,1020.09091 Z M65.3046891,1029.09091 C65.862778,1029.09091 66.3151984,1029.53862 66.3151984,1030.09091 C66.3151984,1030.64319 65.862778,1031.09091 65.3046891,1031.09091 L53.0105093,1031.09091 C52.4524204,1031.09091 52,1030.64319 52,1030.09091 C52,1029.53862 52.4524204,1029.09091 53.0105093,1029.09091 L65.3046891,1029.09091 Z M71.899171,1038 C72.4572599,1038 72.9096804,1038.44772 72.9096804,1039 C72.9096804,1039.55228 72.4572599,1040 71.899171,1040 L53.0105093,1040 C52.4524204,1040 52,1039.55228 52,1039 C52,1038.44772 52.4524204,1038 53.0105093,1038 L71.899171,1038 Z M71.899171,1011 C72.4572599,1011 72.9096804,1011.44772 72.9096804,1012 C72.9096804,1012.55228 72.4572599,1013 71.899171,1013 L53.0105093,1013 C52.4524204,1013 52,1012.55228 52,1012 C52,1011.44772 52.4524204,1011 53.0105093,1011 L71.899171,1011 Z" id="Lists"></path>
        </g>
    </g>
</svg>