<?xml version="1.0" encoding="UTF-8"?>
<svg width="44px" height="44px" viewBox="0 0 44 44" version="1.1" xmlns="http://www.w3.org/2000/svg" xmlns:xlink="http://www.w3.org/1999/xlink">
    <!-- Generator: Sketch 51.3 (57544) - http://www.bohemiancoding.com/sketch -->
    <title>Movies</title>
    <desc>Created with Sketch.</desc>
    <defs></defs>
    <g id="Page-1" stroke="none" stroke-width="1" fill="none" fill-rule="evenodd">
        <g id="icons-things-to-try" transform="translate(-51.000000, -1408.000000)" fill="#F0F1EF" fill-rule="nonzero">
            <path d="M73,1422 C74.6577153,1422 76,1420.65772 76,1419 C76,1417.34228 74.6577153,1416 73,1416 C71.3422847,1416 70,1417.34228 70,1419 C70,1420.65772 71.3422847,1422 73,1422 Z M73,1424 C70.2377153,1424 68,1421.76228 68,1419 C68,1416.23772 70.2377153,1414 73,1414 C75.7622847,1414 78,1416.23772 78,1419 C78,1421.76228 75.7622847,1424 73,1424 Z M71,1430 C71,1428.895 71.895,1428 73,1428 C74.105,1428 75,1428.895 75,1430 C75,1431.105 74.105,1432 73,1432 C71.895,1432 71,1431.105 71,1430 Z M84,1434 L84,1435 C81.2377153,1435 79,1432.76228 79,1430 C79,1427.23772 81.2377153,1425 84,1425 C86.7622847,1425 89,1427.23772 89,1430 C89,1432.76228 86.7622847,1435 84,1435 L84,1434 Z M84,1434 L84,1433 C85.6577153,1433 87,1431.65772 87,1430 C87,1428.34228 85.6577153,1427 84,1427 C82.3422847,1427 81,1428.34228 81,1430 C81,1431.65772 82.3422847,1433 84,1433 L84,1434 Z M69,1441 L68,1441 C68,1438.23772 70.2377153,1436 73,1436 C75.7622847,1436 78,1438.23772 78,1441 C78,1443.76228 75.7622847,1446 73,1446 C70.2377153,1446 68,1443.76228 68,1441 L69,1441 Z M69,1441 L70,1441 C70,1442.65772 71.3422847,1444 73,1444 C74.6577153,1444 76,1442.65772 76,1441 C76,1439.34228 74.6577153,1438 73,1438 C71.3422847,1438 70,1439.34228 70,1441 L69,1441 Z M62,1426 L62,1425 C64.7622847,1425 67,1427.23772 67,1430 C67,1432.76228 64.7622847,1435 62,1435 C59.2377153,1435 57,1432.76228 57,1430 C57,1427.23772 59.2377153,1425 62,1425 L62,1426 Z M62,1426 L62,1427 C60.3422847,1427 59,1428.34228 59,1430 C59,1431.65772 60.3422847,1433 62,1433 C63.6577153,1433 65,1431.65772 65,1430 C65,1428.34228 63.6577153,1427 62,1427 L62,1426 Z M73,1450 C84.045695,1450 93,1441.04569 93,1430 C93,1418.95431 84.045695,1410 73,1410 C61.954305,1410 53,1418.95431 53,1430 C53,1441.04569 61.954305,1450 73,1450 Z M70.7953593,1451.89091 C59.6802739,1450.78497 51,1441.40618 51,1430 C51,1417.84974 60.8497355,1408 73,1408 C85.1502645,1408 95,1417.84974 95,1430 C95,1438.87441 89.7454957,1446.52156 82.1779412,1450 L93.25,1450 C93.8022847,1450 94.25,1450.44772 94.25,1451 C94.25,1451.55228 93.8022847,1452 93.25,1452 L71.25,1452 C71.0862849,1452 70.9317586,1451.96066 70.7953593,1451.89091 Z" id="Movies"></path>
        </g>
    </g>
</svg>