<?xml version="1.0" encoding="UTF-8"?>
<svg width="32px" height="43px" viewBox="0 0 32 43" version="1.1" xmlns="http://www.w3.org/2000/svg" xmlns:xlink="http://www.w3.org/1999/xlink">
    <!-- Generator: Sketch 51.3 (57544) - http://www.bohemiancoding.com/sketch -->
    <title>Navigation</title>
    <desc>Created with Sketch.</desc>
    <defs></defs>
    <g id="Page-1" stroke="none" stroke-width="1" fill="none" fill-rule="evenodd">
        <g id="icons-things-to-try" transform="translate(-58.000000, -528.000000)" fill="#F0F1EF" fill-rule="nonzero">
            <path d="M66,571 C65.4477153,571 65,570.549264 65,569.993254 C65,569.437243 65.4477153,568.986508 66,568.986508 L82,568.986508 C82.5522847,568.986508 83,569.437243 83,569.993254 C83,570.549264 82.5522847,571 82,571 L66,571 Z M74.3571429,548.783333 C77.1882699,548.783333 79.4285714,546.535564 79.4285714,543.698413 C79.4285714,540.861261 77.1882699,538.613492 74.3571429,538.613492 C71.5260158,538.613492 69.2857143,540.861261 69.2857143,543.698413 C69.2857143,546.535564 71.5260158,548.783333 74.3571429,548.783333 Z M74.3571429,550.796825 C70.4229637,550.796825 67.2857143,547.649118 67.2857143,543.698413 C67.2857143,539.747707 70.4229637,536.6 74.3571429,536.6 C78.291322,536.6 81.4285714,539.747707 81.4285714,543.698413 C81.4285714,547.649118 78.291322,550.796825 74.3571429,550.796825 Z M74,528 C82.8279061,528 90,534.771094 90,543.168079 C90,549.656929 87.0748463,555.543508 82.2277658,560.721698 C80.5449377,562.519482 78.7444041,564.10304 76.9430145,565.460594 C76.3113699,565.93661 75.7238204,566.35095 75.1949397,566.701969 C74.8735624,566.915268 74.6402542,567.061724 74.5095977,567.13963 C74.1953561,567.327002 73.8046439,567.327002 73.4904023,567.13963 C73.3597458,567.061724 73.1264376,566.915268 72.8050603,566.701969 C72.2761796,566.35095 71.6886301,565.93661 71.0569855,565.460594 C69.2555959,564.10304 67.4550623,562.519482 65.7722342,560.721698 C60.9251537,555.543508 58,549.656929 58,543.168079 C58,534.771094 65.1720939,528 74,528 Z M74,565.083122 C74.0302914,565.063188 74.0616723,565.042451 74.0941228,565.020914 C74.5906327,564.691379 75.1456613,564.299973 75.7444855,563.84869 C77.4587209,562.556817 79.1738123,561.048406 80.7722342,559.340794 C85.3001537,554.503567 88,549.070396 88,543.168079 C88,535.913065 81.7510413,530.013492 74,530.013492 C66.2489587,530.013492 60,535.913065 60,543.168079 C60,549.070396 62.6998463,554.503567 67.2277658,559.340794 C68.8261877,561.048406 70.5412791,562.556817 72.2555145,563.84869 C72.8543387,564.299973 73.4093673,564.691379 73.9058772,565.020914 C73.9383277,565.042451 73.9697086,565.063188 74,565.083122 Z" id="Navigation"></path>
        </g>
    </g>
</svg>