<?xml version="1.0" encoding="UTF-8"?>
<svg width="44px" height="44px" viewBox="0 0 44 44" version="1.1" xmlns="http://www.w3.org/2000/svg" xmlns:xlink="http://www.w3.org/1999/xlink">
    <!-- Generator: Sketch 51.3 (57544) - http://www.bohemiancoding.com/sketch -->
    <title>News and Information</title>
    <desc>Created with Sketch.</desc>
    <defs></defs>
    <g id="Page-1" stroke="none" stroke-width="1" fill="none" fill-rule="evenodd">
        <g id="icons-things-to-try" transform="translate(-51.000000, -768.000000)" fill="#F0F1EF" fill-rule="nonzero">
            <path d="M58.5022171,798.866702 C58.2938571,798.486531 58.3510857,797.999733 58.6735106,797.678237 L63.7144855,792.651791 C64.0766392,792.290681 64.6528947,792.261017 65.0502134,792.583032 L71.3401697,797.680854 L80.8310624,789 L77,789 C76.4477153,789 76,788.552285 76,788 C76,787.447715 76.4477153,787 77,787 L83.0000001,787 C83.5522849,787 84.0000001,787.447715 84.0000001,788 L84.0000001,794 C84,794.552285 83.5522848,795 83,795 C82.4477153,795 82,794.552285 82.0000001,794 L82.0000001,790.641244 L72.0545122,799.737895 C71.6892466,800.071985 71.1345202,800.088565 70.7499539,799.776885 L64.489716,794.703148 L60.6563727,798.525444 C63.4312703,802.538346 68.0035127,805 73,805 C81.2842712,805 88,798.284271 88,790 C88,781.715729 81.2842712,775 73,775 C64.7157288,775 58,781.715729 58,790 C58,791.486098 58.2158317,792.942135 58.6358934,794.335794 C58.7952747,794.864581 58.495812,795.422452 57.9670247,795.581834 C57.4382374,795.741215 56.8803664,795.441752 56.7209851,794.912965 C56.2446526,793.332613 56,791.682146 56,790 C56,780.611159 63.6111593,773 73,773 C82.3888407,773 90,780.611159 90,790 C90,799.388841 82.3888407,807 73,807 C67.0611113,807 61.6486593,803.929251 58.5644682,798.982707 C58.5409073,798.944919 58.5201761,798.906168 58.5022171,798.866702 Z M73,810 C84.045695,810 93,801.045695 93,790 C93,778.954305 84.045695,770 73,770 C61.954305,770 53,778.954305 53,790 C53,801.045695 61.954305,810 73,810 Z M73,812 C60.8497355,812 51,802.150264 51,790 C51,777.849736 60.8497355,768 73,768 C85.1502645,768 95,777.849736 95,790 C95,802.150264 85.1502645,812 73,812 Z" id="News-and-Information"></path>
        </g>
    </g>
</svg>