<?xml version="1.0" encoding="UTF-8"?>
<svg width="29px" height="47px" viewBox="0 0 29 47" version="1.1" xmlns="http://www.w3.org/2000/svg" xmlns:xlink="http://www.w3.org/1999/xlink">
    <!-- Generator: Sketch 51.3 (57544) - http://www.bohemiancoding.com/sketch -->
    <title>Questions and Answers</title>
    <desc>Created with Sketch.</desc>
    <defs></defs>
    <g id="Page-1" stroke="none" stroke-width="1" fill="none" fill-rule="evenodd">
        <g id="icons-things-to-try" transform="translate(-59.000000, -1167.000000)" fill="#F0F1EF" fill-rule="nonzero">
            <path d="M73.7362698,1213.99994 C73.6355558,1213.99974 73.6355558,1213.99974 73.6146406,1213.99987 L73.521437,1213.99293 C68.2643927,1213.6551 65.3911551,1210.25185 65.8923973,1204.38222 C66.0108777,1202.99442 65.710276,1201.75783 64.9596635,1200.20986 C64.7821081,1199.84369 64.5799679,1199.45891 64.3162248,1198.97972 C64.1988211,1198.76642 63.8295498,1198.10641 63.6602533,1197.80331 C61.0234426,1195.31516 59.5094695,1191.95062 59.5094695,1188.35797 C59.5094695,1180.96391 65.8649563,1174.99134 73.6794981,1174.99134 C81.493908,1174.99134 87.8493686,1180.96394 87.8493686,1188.35797 C87.8493686,1191.83129 86.432159,1195.09319 83.9447407,1197.56076 C83.7794596,1197.85092 83.4347661,1198.45417 83.333003,1198.63428 C83.0819441,1199.07862 82.8888681,1199.43223 82.7150334,1199.76996 C81.8114792,1201.5254 81.4483419,1202.87137 81.5774059,1204.38222 C82.0783721,1210.25056 79.2065154,1213.65357 73.9520057,1213.99654 C73.8770168,1213.99992 73.822863,1214.00017 73.7362698,1213.99994 Z M79.5791583,1204.54947 C79.4138773,1202.61466 79.8696859,1200.92519 80.9282639,1198.86858 C81.1156502,1198.50452 81.3201869,1198.12992 81.5828247,1197.66508 C81.7060026,1197.44707 82.1649098,1196.64436 82.2649284,1196.4678 L82.3349397,1196.34421 L82.4370843,1196.24494 C84.6111418,1194.13222 85.8439925,1191.3355 85.8439925,1188.35797 C85.8439925,1182.0842 80.4090553,1176.97667 73.6794981,1176.97667 C66.9498055,1176.97667 61.5148456,1182.08417 61.5148456,1188.35797 C61.5148456,1191.4423 62.8354595,1194.33115 65.1455162,1196.46104 L65.2633847,1196.56971 L65.3409431,1196.70947 C65.4137893,1196.84073 65.9302873,1197.76297 66.0771494,1198.0298 C66.3559538,1198.53635 66.5729073,1198.94933 66.7675179,1199.35067 C67.660652,1201.19256 68.0429657,1202.76528 67.890647,1204.54944 C67.4834935,1209.31728 69.5225074,1211.74035 73.6338918,1212.01447 C73.6537384,1212.01438 73.6714772,1212.01443 73.7123106,1212.01455 C73.8036355,1212.01457 73.8272639,1212.01453 73.8348227,1212.01454 C77.9468187,1211.74071 79.9862055,1209.31764 79.5791583,1204.54947 Z M62.8671922,1173.65953 C63.266711,1174.03916 63.2797255,1174.66755 62.8962608,1175.06308 C62.5127961,1175.4586 61.8780625,1175.47149 61.4785437,1175.09186 L59.3083651,1173.02971 C58.9088463,1172.65007 58.8958319,1172.02169 59.2792965,1171.62616 C59.6627612,1171.23064 60.2974948,1171.21775 60.6970136,1171.59738 L62.8671922,1173.65953 Z M74.5399027,1170.97066 C74.5399027,1171.51889 74.090984,1171.96332 73.5372147,1171.96332 C72.9834453,1171.96332 72.5345266,1171.51889 72.5345266,1170.97066 L72.5345266,1167.99266 C72.5345266,1167.44443 72.9834453,1167 73.5372147,1167 C74.090984,1167 74.5399027,1167.44443 74.5399027,1167.99266 L74.5399027,1170.97066 Z M85.5214563,1175.09186 C85.1219375,1175.47149 84.4872039,1175.4586 84.1037392,1175.06308 C83.7202745,1174.66755 83.733289,1174.03916 84.1328078,1173.65953 L86.3029864,1171.59738 C86.7025052,1171.21775 87.3372388,1171.23064 87.7207035,1171.62616 C88.1041681,1172.02169 88.0911537,1172.65007 87.6916349,1173.02971 L85.5214563,1175.09186 Z M73.5868694,1213.00623 L73.4163362,1213.98444 L73.4232913,1213.98563 L73.521437,1213.99293 L73.5868694,1213.00623 Z M66.3491395,1200.99836 C65.7953702,1200.99836 65.3464514,1200.55392 65.3464514,1200.00569 C65.3464514,1199.45746 65.7953702,1199.01303 66.3491395,1199.01303 L81.0668249,1199.01303 C81.6205942,1199.01303 82.0695129,1199.45746 82.0695129,1200.00569 C82.0695129,1200.55392 81.6205942,1200.99836 81.0668249,1200.99836 L66.3491395,1200.99836 Z M66.910444,1205.01546 C66.3566747,1205.01546 65.9077559,1204.57103 65.9077559,1204.0228 C65.9077559,1203.47456 66.3566747,1203.03013 66.910444,1203.03013 L80.183131,1203.03013 C80.7369003,1203.03013 81.185819,1203.47456 81.185819,1204.0228 C81.185819,1204.57103 80.7369003,1205.01546 80.183131,1205.01546 L66.910444,1205.01546 Z M68.6619354,1188.08961 C68.3814224,1187.61692 68.5410835,1187.0086 69.0185486,1186.73089 C69.4960137,1186.45318 70.1104764,1186.61125 70.3909894,1187.08394 L74.5560014,1194.10239 C74.8365144,1194.57508 74.6768532,1195.1834 74.1993882,1195.46111 C73.7219231,1195.73882 73.1074604,1195.58076 72.8269474,1195.10806 L68.6619354,1188.08961 Z M77.4912206,1187.04326 C77.7944285,1186.5845 78.4158746,1186.45595 78.8792594,1186.75613 C79.3426441,1187.05631 79.4724931,1187.67154 79.1692852,1188.13029 L74.5305067,1195.14875 C74.2272988,1195.6075 73.6058526,1195.73605 73.1424679,1195.43587 C72.6790831,1195.1357 72.5492341,1194.52046 72.8524421,1194.06171 L77.4912206,1187.04326 Z M72.5345266,1193.54276 L74.5399027,1193.54276 L74.5399027,1199.49875 L72.5345266,1199.49875 L72.5345266,1193.54276 Z" id="Questions-and-Answers"></path>
        </g>
    </g>
</svg>