<?xml version="1.0" encoding="UTF-8"?>
<svg width="38px" height="44px" viewBox="0 0 38 44" version="1.1" xmlns="http://www.w3.org/2000/svg" xmlns:xlink="http://www.w3.org/1999/xlink">
    <!-- Generator: Sketch 51.3 (57544) - http://www.bohemiancoding.com/sketch -->
    <title>Shopping</title>
    <desc>Created with Sketch.</desc>
    <defs></defs>
    <g id="Page-1" stroke="none" stroke-width="1" fill="none" fill-rule="evenodd">
        <g id="icons-things-to-try" transform="translate(-54.000000, -1083.000000)" fill="#F0F1EF" fill-rule="nonzero">
            <path d="M56,1094.99018 L56,1123.00982 C56,1124.10915 56.8920836,1125 57.9948438,1125 L88.0051562,1125 C89.1112692,1125 90,1124.11128 90,1123.00982 L90,1094.99018 C90,1093.89085 89.1079164,1093 88.0051562,1093 L57.9948438,1093 C56.8887308,1093 56,1093.88872 56,1094.99018 Z M54,1094.99018 C54,1092.78646 55.7818508,1091 57.9948438,1091 L88.0051562,1091 C90.2114475,1091 92,1092.78525 92,1094.99018 L92,1123.00982 C92,1125.21354 90.2181492,1127 88.0051562,1127 L57.9948438,1127 C55.7885525,1127 54,1125.21475 54,1123.00982 L54,1094.99018 Z M81.9922633,1090.875 C81.9973696,1090.91595 82,1090.95767 82,1091 L82,1097 C82,1097.55228 81.5522847,1098 81,1098 C80.4477153,1098 80,1097.55228 80,1097 L80,1091 C80,1090.95767 80.0026304,1090.91595 80.0077367,1090.875 C80.0026304,1090.83405 80,1090.79233 80,1090.75 C80,1087.61557 76.9000635,1085 73,1085 C69.0999365,1085 66,1087.61557 66,1090.75 L66,1097 C66,1097.55228 65.5522847,1098 65,1098 C64.4477153,1098 64,1097.55228 64,1097 L64,1090.75 C64,1086.42858 68.0635075,1083 73,1083 C77.9364925,1083 82,1086.42858 82,1090.75 C82,1090.79233 81.9973696,1090.83405 81.9922633,1090.875 Z M81,1102 C79.3431458,1102 78,1100.65685 78,1099 C78,1097.34315 79.3431458,1096 81,1096 C82.6568542,1096 84,1097.34315 84,1099 C84,1100.65685 82.6568542,1102 81,1102 Z M81,1100 C81.5522847,1100 82,1099.55228 82,1099 C82,1098.44772 81.5522847,1098 81,1098 C80.4477153,1098 80,1098.44772 80,1099 C80,1099.55228 80.4477153,1100 81,1100 Z M65,1102 C63.3431458,1102 62,1100.65685 62,1099 C62,1097.34315 63.3431458,1096 65,1096 C66.6568542,1096 68,1097.34315 68,1099 C68,1100.65685 66.6568542,1102 65,1102 Z M65,1100 C65.5522847,1100 66,1099.55228 66,1099 C66,1098.44772 65.5522847,1098 65,1098 C64.4477153,1098 64,1098.44772 64,1099 C64,1099.55228 64.4477153,1100 65,1100 Z" id="Shopping"></path>
        </g>
    </g>
</svg>