<?xml version="1.0" encoding="UTF-8"?>
<svg width="39px" height="44px" viewBox="0 0 39 44" version="1.1" xmlns="http://www.w3.org/2000/svg" xmlns:xlink="http://www.w3.org/1999/xlink">
    <!-- Generator: Sketch 51.3 (57544) - http://www.bohemiancoding.com/sketch -->
    <title>Skills</title>
    <desc>Created with Sketch.</desc>
    <defs></defs>
    <g id="Page-1" stroke="none" stroke-width="1" fill="none" fill-rule="evenodd">
        <g id="icons-things-to-try" transform="translate(-53.000000, -850.000000)" fill="#FFFFFF" fill-rule="nonzero">
            <path d="M70.0986372,891.906007 C70.7930819,891.628297 71.5686209,891.290472 72.4047901,890.891412 C74.7954817,889.750461 77.1862486,888.350593 79.4133343,886.684831 C84.8210839,882.640073 88.376903,877.718205 89.2606984,871.86581 C89.2784077,871.747511 89.2784077,871.747511 89.2821851,871.720455 C89.2983199,871.601031 89.2983199,871.601031 89.3075989,871.531189 C89.3286971,871.372216 89.3392118,871.289368 89.3498866,871.193869 C89.3662924,871.052261 89.3803165,870.916764 89.3909217,870.801099 C89.3952352,870.737258 89.3994456,870.688352 89.4081458,870.595177 C89.4241463,870.383615 89.4357691,870.179126 89.4501706,869.848661 C89.4593172,869.585444 89.4637198,869.387133 89.4637198,869.194581 C89.4637198,859.564998 81.6939534,851.760002 72.1118609,851.760002 C62.5291988,851.760002 54.7600019,859.564686 54.7600019,869.194581 C54.7600019,876.929547 59.8178855,883.67194 67.0822478,885.885947 C68.9108157,886.487254 69.519378,887.157818 69.5193779,888.730185 L69.5209903,892.13012 C69.6725384,892.073551 69.8663031,891.998918 70.0986372,891.906007 Z M53,869.194581 C53,858.594455 61.5553766,850 72.1118609,850 C82.6677625,850 91.2237218,858.594754 91.2237218,869.194581 C91.2237218,869.410962 91.2189047,869.627941 91.2088112,869.917447 C91.1933482,870.273094 91.1806898,870.495803 91.1619326,870.742254 C91.1533558,870.835373 91.1499396,870.875054 91.1453932,870.939148 C91.1318724,871.08968 91.1162967,871.240168 91.0986024,871.392834 C91.0865906,871.500368 91.0749323,871.592228 91.0523027,871.762739 C91.0430479,871.832404 91.0430479,871.832404 91.0329209,871.909199 C91.0081258,872.083934 91.0081258,872.083934 90.9991373,872.140215 C90.0384835,878.502131 86.2136832,883.796316 80.4674907,888.094214 C78.1403788,889.834791 75.6516483,891.29202 73.1628425,892.479796 C72.2911876,892.895791 71.48089,893.248757 70.7521479,893.540183 C70.4956384,893.642762 70.2671609,893.730474 70.0692432,893.803499 C69.9481707,893.84817 69.8627483,893.878494 69.8420691,893.885086 C68.7733664,894.289201 67.7611361,893.58465 67.7611362,892.441984 L67.7593761,888.730602 C67.7593761,888.009383 67.6998882,887.941939 66.5597423,887.566626 C58.5638235,885.125175 53,877.705008 53,869.194581 Z M83.5697374,869.129461 C83.5697374,862.811618 78.4473149,857.689448 72.1297249,857.689448 C65.8115686,857.689448 60.6897124,862.811305 60.6897124,869.129461 C60.6897124,875.447617 65.8115686,880.569473 72.1297249,880.569473 C78.4473149,880.569473 83.5697374,875.447304 83.5697374,869.129461 Z M85.3297393,869.129461 C85.3297393,876.419345 79.4193176,882.329475 72.1297249,882.329475 C64.8395464,882.329475 58.9297105,876.419639 58.9297105,869.129461 C58.9297105,861.839282 64.8395464,855.929446 72.1297249,855.929446 C79.4193176,855.929446 85.3297393,861.839577 85.3297393,869.129461 Z M75.5441227,865.558411 C75.8877844,865.214749 76.4449702,865.214749 76.788632,865.558411 C77.1322937,865.902073 77.1322937,866.459259 76.788632,866.80292 L71.5086262,872.082926 C71.1649644,872.426588 70.6077786,872.426588 70.2641169,872.082926 L67.4701138,869.288923 C67.1264521,868.945261 67.1264521,868.388075 67.4701138,868.044414 C67.8137756,867.700752 68.3709614,867.700752 68.7146231,868.044414 L70.8863715,870.216162 L75.5441227,865.558411 Z" id="Skills"></path>
        </g>
    </g>
</svg>