<?xml version="1.0" encoding="UTF-8"?>
<svg width="40px" height="42px" viewBox="0 0 40 42" version="1.1" xmlns="http://www.w3.org/2000/svg" xmlns:xlink="http://www.w3.org/1999/xlink">
    <!-- Generator: Sketch 51.3 (57544) - http://www.bohemiancoding.com/sketch -->
    <title>Smart Home</title>
    <desc>Created with Sketch.</desc>
    <defs></defs>
    <g id="Page-1" stroke="none" stroke-width="1" fill="none" fill-rule="evenodd">
        <g id="icons-things-to-try" transform="translate(-53.000000, -686.000000)" fill="#F0F1EF" fill-rule="nonzero">
            <path d="M83.7858831,706.203614 C84.2283172,706.53763 84.3146053,707.164958 83.978613,707.604789 C83.6426206,708.044621 83.0115813,708.130401 82.5691471,707.796386 C79.2455714,705.28725 76.2959772,704 73.1183432,704 C69.6979857,704 66.9038333,705.202667 63.6905944,707.778448 C63.2581252,708.125122 62.6248421,708.057634 62.2761169,707.627709 C61.9273918,707.197783 61.9952797,706.568225 62.4277488,706.221552 C65.9697216,703.382252 69.1811032,702 73.1183432,702 C76.8115777,702 80.1444696,703.454527 83.7858831,706.203614 Z M77.87694,714.317199 C78.2562717,714.720701 78.2347423,715.353504 77.8288528,715.730605 C77.4229633,716.107705 76.7864158,716.086302 76.4070841,715.682801 C75.3260069,714.532839 74.3368592,714 73.1183432,714 C71.8248699,714 70.8921113,714.496517 69.8460693,715.664852 C69.4767088,716.077395 68.840872,716.114163 68.4258881,715.746975 C68.0109043,715.379787 67.9739193,714.74769 68.3432798,714.335148 C69.7433487,712.771396 71.1924957,712 73.1183432,712 C74.9682232,712 76.4478545,712.797056 77.87694,714.317199 Z M80.8549815,710.277268 C81.2564971,710.658968 81.27073,711.291975 80.8867716,711.691129 C80.5028132,712.090282 79.8660607,712.104432 79.4645451,711.722732 C77.5415,709.894593 75.5358132,709 73.1183432,709 C70.7587912,709 68.7049676,709.921288 66.7649406,711.72951 C66.3596595,712.107256 65.7230783,712.086868 65.3430967,711.68397 C64.9631151,711.281073 64.9836244,710.648237 65.3889055,710.27049 C67.6803847,708.134694 70.2099532,707 73.1183432,707 C76.0854773,707 78.5761667,708.110918 80.8549815,710.277268 Z M73.7948521,688.301174 C73.3552663,687.899609 72.6447337,687.899609 72.2051479,688.301174 L68.830376,691.384048 C68.7413789,691.46491 67.7924932,692.33161 66.0092481,693.960798 C65.3681228,694.546545 65.3681228,694.546545 65.0067966,694.876666 C64.695699,695.160899 64.695699,695.160899 64.2060557,695.608265 C63.6411963,696.124355 63.6411963,696.124355 63.4221334,696.324499 C63.3296366,696.409006 63.3296366,696.409006 63.2110651,696.517334 L55.3392678,703.708274 C55.1291073,703.899234 55.0118343,704.160313 55.0118343,704.432578 L55.0118343,720.8649 C55.0118343,723.68658 57.5212399,726 60.6331361,726 L85.3668639,726 C88.4793714,726 90.9881657,723.687043 90.9881657,720.8649 L90.9881657,704.432578 C90.9881657,704.161438 90.8706862,703.900073 90.6587574,703.706475 L73.7948521,688.301174 Z M93,704.432578 L93,720.8649 C93,724.826697 89.5580141,728 85.3668639,728 L60.6331361,728 C56.4426149,728 53,724.826254 53,720.8649 L53,704.432578 C53,703.595152 53.357378,702.799538 53.9799896,702.233815 L61.8497704,695.044713 C61.9682984,694.936424 61.9682984,694.936424 62.0607919,694.85192 C62.2798199,694.651808 62.2798199,694.651808 62.8446801,694.135717 C63.3343269,693.688348 63.3343269,693.688348 63.6454234,693.404116 C64.0067746,693.073973 64.0067746,693.073973 64.6479072,692.488219 C66.4382483,690.852548 67.3818384,689.990685 67.4711139,689.909574 L70.8438949,686.828514 C72.0531741,685.723829 73.9468259,685.723829 75.1561051,686.828514 L92.0200104,702.233815 C92.6431567,702.803064 93,703.596957 93,704.432578 Z" id="Smart-Home"></path>
        </g>
    </g>
</svg>