<?xml version="1.0" encoding="UTF-8"?>
<svg width="44px" height="41px" viewBox="0 0 44 41" version="1.1" xmlns="http://www.w3.org/2000/svg" xmlns:xlink="http://www.w3.org/1999/xlink">
    <!-- Generator: Sketch 51.3 (57544) - http://www.bohemiancoding.com/sketch -->
    <title>Sports</title>
    <desc>Created with Sketch.</desc>
    <defs></defs>
    <g id="Page-1" stroke="none" stroke-width="1" fill="none" fill-rule="evenodd">
        <g id="icons-things-to-try" transform="translate(-54.000000, -1252.000000)" fill="#F0F1EF" fill-rule="nonzero">
            <path d="M84.4064076,1277.2188 L80.1316865,1277.2188 C79.5766045,1277.2188 79.1266216,1276.76717 79.1266216,1276.21006 C79.1266216,1275.65295 79.5766045,1275.20132 80.1316865,1275.20132 L84.4064076,1275.20132 L84.4064076,1273.18384 L81.1367514,1273.18384 C80.5816694,1273.18384 80.1316865,1272.73221 80.1316865,1272.1751 C80.1316865,1271.61799 80.5816694,1271.16636 81.1367514,1271.16636 L84.4064076,1271.16636 L84.4064076,1269.11627 C84.3251368,1269.13755 84.2398595,1269.14888 84.151946,1269.14888 L82.1418162,1269.14888 C81.5867342,1269.14888 81.1367514,1268.69725 81.1367514,1268.14014 C81.1367514,1267.58303 81.5867342,1267.1314 82.1418162,1267.1314 L84.151946,1267.1314 C84.2398595,1267.1314 84.3251368,1267.14273 84.4064076,1267.16401 L84.4064076,1265.29188 C84.117686,1265.1923 83.8068709,1265.07965 83.4783531,1264.95406 C82.2559491,1264.48673 81.0328311,1263.93541 79.8850185,1263.30017 C78.5059254,1262.53694 77.3270483,1261.70195 76.4081181,1260.78582 C75.727878,1260.10752 75.0744873,1259.33556 74.4483761,1258.48736 C73.6301085,1257.37884 72.8977416,1256.19629 72.2592318,1255.01403 C72.2038697,1254.91152 72.1501857,1254.81079 72.0981983,1254.71197 L59.7910423,1266.98487 C59.5685748,1267.20671 59.5787808,1267.69809 59.8481068,1267.9663 L82.499889,1290.55385 C82.5300581,1290.58392 82.6309202,1290.66385 82.7847476,1290.75032 C83.0449214,1290.89657 83.3311911,1290.98252 83.6353357,1290.98252 L95.5463109,1290.98252 C95.8056838,1290.98252 95.9898703,1290.80297 95.9898703,1290.54763 L95.9898703,1289.10372 C95.9898703,1286.40219 93.9413899,1284.33766 91.2027671,1284.33766 L86.8592233,1284.33766 C86.3041413,1284.33766 85.8541585,1283.88603 85.8541585,1283.32892 C85.8541585,1282.77181 86.3041413,1282.32018 86.8592233,1282.32018 L91.2027671,1282.32018 C95.0534286,1282.32018 98,1285.28984 98,1289.10372 L98,1290.54763 C98,1291.93057 96.9029429,1293 95.5463109,1293 L83.6353357,1293 C82.9597811,1293 82.3447365,1292.81533 81.8025045,1292.51053 C81.4748886,1292.32638 81.2342643,1292.13568 81.0832802,1291.98519 L58.4318254,1269.39797 C57.3837494,1268.35426 57.3468607,1266.57818 58.3742713,1265.55369 L71.6715706,1252.2934 C72.1713992,1251.79496 73.0138241,1251.95402 73.2990206,1252.60068 C73.3280114,1252.66641 73.3889549,1252.79866 73.4803985,1252.98779 C73.6352405,1253.30806 73.8177583,1253.66622 74.0264386,1254.05261 C74.6228158,1255.15686 75.3065079,1256.26081 76.063536,1257.28637 C76.632476,1258.05712 77.2211542,1258.75262 77.824794,1259.35454 C78.5952699,1260.12267 79.62745,1260.85376 80.8556479,1261.53348 C81.9133337,1262.11884 83.0532498,1262.63266 84.1938798,1263.06872 C84.5933809,1263.22145 84.9637919,1263.35331 85.2951009,1263.46377 C85.4909486,1263.52907 85.6280436,1263.5721 85.6964336,1263.59239 C86.1234878,1263.71911 86.4165373,1264.11278 86.4165373,1264.55974 L86.4165373,1278.4759 L87.7478143,1279.42167 C88.2008808,1279.74354 88.3081874,1280.37309 87.9874901,1280.82782 C87.6667929,1281.28254 87.0395334,1281.39024 86.5864668,1281.06837 L84.8307987,1279.8211 C84.5646257,1279.632 84.4064076,1279.32505 84.4064076,1278.99775 L84.4064076,1277.2188 Z M56.4530486,1278.56234 C55.8979666,1278.56234 55.4479838,1278.11071 55.4479838,1277.5536 C55.4479838,1276.99649 55.8979666,1276.54486 56.4530486,1276.54486 L60.4733081,1276.54486 C61.0283901,1276.54486 61.478373,1276.99649 61.478373,1277.5536 C61.478373,1278.11071 61.0283901,1278.56234 60.4733081,1278.56234 L56.4530486,1278.56234 Z M55.0050649,1282.89362 C54.4499829,1282.89362 54,1282.442 54,1281.88488 C54,1281.32777 54.4499829,1280.87614 55.0050649,1280.87614 L63.0455838,1280.87614 C63.6006658,1280.87614 64.0506487,1281.32777 64.0506487,1281.88488 C64.0506487,1282.442 63.6006658,1282.89362 63.0455838,1282.89362 L55.0050649,1282.89362 Z M57.9009742,1287.22514 C57.3458922,1287.22514 56.8959093,1286.77352 56.8959093,1286.2164 C56.8959093,1285.65929 57.3458922,1285.20766 57.9009742,1285.20766 L67.9516229,1285.20766 C68.5067049,1285.20766 68.9566877,1285.65929 68.9566877,1286.2164 C68.9566877,1286.77352 68.5067049,1287.22514 67.9516229,1287.22514 L57.9009742,1287.22514 Z" id="Sports"></path>
        </g>
    </g>
</svg>