<?xml version="1.0" encoding="UTF-8"?>
<svg width="44px" height="37px" viewBox="0 0 44 37" version="1.1" xmlns="http://www.w3.org/2000/svg" xmlns:xlink="http://www.w3.org/1999/xlink">
    <!-- Generator: Sketch 51.3 (57544) - http://www.bohemiancoding.com/sketch -->
    <title>Traffic Information</title>
    <desc>Created with Sketch.</desc>
    <defs></defs>
    <g id="Page-1" stroke="none" stroke-width="1" fill="none" fill-rule="evenodd">
        <g id="icons-things-to-try" transform="translate(-51.000000, -927.000000)" fill="#F0F1EF" fill-rule="nonzero">
            <path d="M93,942.133216 C93,940.947469 92.0856304,940 90.9762419,940 L55.0237581,940 C53.9141169,940 53,940.947298 53,942.133216 L53,944.283297 C53.0025459,944.371889 53.0025459,944.371889 53.0016799,944.380428 L53.0016799,954.815361 L55.2799376,954.815361 C55.8322224,954.815361 56.2799376,955.263077 56.2799376,955.815361 L56.2799376,959.866784 C56.2799376,961.052919 57.1938446,962 58.3032757,962 L58.600612,962 C59.7104204,962 60.6243701,961.052966 60.6243701,959.866784 L60.6243701,955.815361 C60.6243701,955.263077 61.0720853,954.815361 61.6243701,954.815361 L84.2076434,954.815361 C84.7599281,954.815361 85.2076434,955.263077 85.2076434,955.815361 L85.2076434,959.866784 C85.2076434,961.052795 86.1218456,962 87.2314015,962 L87.5287377,962 C88.6382936,962 89.5524958,961.052795 89.5524958,959.866784 L89.5524958,955.815361 C89.5524958,955.263077 90.0002111,954.815361 90.5524958,954.815361 L92.9981388,954.815361 L92.9962409,944.350747 C92.9973126,944.324001 92.9985656,944.299747 93,944.277984 L93,942.133216 Z M54.2799376,956.815361 L52.0016799,956.815361 C51.4493951,956.815361 51.0016799,956.367646 51.0016799,955.815361 L51.0034387,944.321144 C51.001758,944.341753 51.0006118,943.612444 51,942.133216 C51,939.85837 52.7932766,938 55.0237581,938 L90.9762419,938 C93.2064262,938 95,939.8585 95,942.133216 L95,944.29557 C94.9981979,944.372994 94.9981222,944.376244 94.9958064,944.4079 L94.9983201,955.815141 C94.9984418,956.367512 94.5506909,956.815361 93.9983201,956.815361 L91.5524958,956.815361 L91.5524958,959.866784 C91.5524958,962.141806 89.7590448,964 87.5287377,964 L87.2314015,964 C85.0010944,964 83.2076434,962.141806 83.2076434,959.866784 L83.2076434,956.815361 L62.6243701,956.815361 L62.6243701,959.866784 C62.6243701,962.141935 60.8312162,964 58.600612,964 L58.3032757,964 C56.0730042,964 54.2799376,962.141847 54.2799376,959.866784 L54.2799376,956.815361 Z M94.9954888,944.412233 L94.99507,944.418421 C94.9948721,944.421991 94.9948721,944.421991 94.9958003,944.380208 L94.9958064,944.407899 C94.9957049,944.409287 94.9955992,944.410729 94.9954888,944.412233 Z M56.9200852,939.391718 L55.0799148,938.608282 L58.3663019,930.889809 C59.232066,928.442934 61.1697697,927 63.6641684,927 L82.2040655,927 C84.6130693,927 86.3635825,928.37979 87.4426122,930.829042 L90.9129292,938.591882 L89.0870708,939.408118 L85.6145574,931.640329 C84.8291733,929.857639 83.7411027,929 82.2040655,929 L63.6641684,929 C62.0379125,929 60.8420952,929.89048 60.2516582,931.56117 L60.2156239,931.651012 L56.9200852,939.391718 Z M62,947.5 C62,946.671592 61.3284265,946 60.4998153,946 C59.6715393,946 59,946.671627 59,947.5 C59,948.328373 59.6715393,949 60.4998153,949 C61.3284265,949 62,948.328408 62,947.5 Z M64,947.5 C64,949.432964 62.4330086,951 60.4998153,951 C58.5669114,951 57,949.432884 57,947.5 C57,945.567116 58.5669114,944 60.4998153,944 C62.4330086,944 64,945.567036 64,947.5 Z M87,947.5 C87,946.671592 86.3284265,946 85.4998153,946 C84.6715393,946 84,946.671627 84,947.5 C84,948.328373 84.6715393,949 85.4998153,949 C86.3284265,949 87,948.328408 87,947.5 Z M89,947.5 C89,949.432964 87.4330086,951 85.4998153,951 C83.5669114,951 82,949.432884 82,947.5 C82,945.567116 83.5669114,944 85.4998153,944 C87.4330086,944 89,945.567036 89,947.5 Z" id="Traffic-Information"></path>
        </g>
    </g>
</svg>