<?xml version="1.0" encoding="UTF-8"?>
<svg width="45px" height="43px" viewBox="0 0 45 43" version="1.1" xmlns="http://www.w3.org/2000/svg" xmlns:xlink="http://www.w3.org/1999/xlink">
    <!-- Generator: Sketch 51.3 (57544) - http://www.bohemiancoding.com/sketch -->
    <title>Weather</title>
    <desc>Created with Sketch.</desc>
    <defs></defs>
    <g id="Page-1" stroke="none" stroke-width="1" fill="none" fill-rule="evenodd">
        <g id="icons-things-to-try" transform="translate(-51.000000, -606.000000)" fill="#F0F1EF">
            <path d="M53.5250944,614.74108 L56.1230886,616.241076 C56.2750883,616.329076 56.4480879,616.375076 56.6230875,616.375076 C56.9790867,616.375076 57.311086,616.183076 57.4890856,615.875077 C57.765085,615.397078 57.6010853,614.78408 57.1230864,614.50908 L54.5250922,613.009084 C54.3730925,612.921084 54.2000929,612.874084 54.0250933,612.874084 C53.6690941,612.874084 53.3370948,613.066084 53.1590952,613.375083 C52.8840958,613.853082 53.0480954,614.46508 53.5250944,614.74108 L53.5250944,614.74108 Z M56.713446,625.750054 C56.5354464,625.441055 56.2034472,625.250055 55.8474479,625.250055 C55.6724483,625.250055 55.4994487,625.296055 55.3474491,625.384055 L52.7494548,626.884051 C52.2724559,627.159051 52.1084563,627.772049 52.3834556,628.250048 C52.5614552,628.558048 52.8934545,628.750047 53.2504537,628.750047 C53.4244533,628.750047 53.5974529,628.704047 53.7494526,628.616047 L56.3474468,627.116051 C56.8254458,626.840052 56.9894454,626.228053 56.713446,625.750054 L56.713446,625.750054 Z M59.5000811,621.500064 C59.5000811,622.967061 59.9530801,624.362057 60.8140782,625.557055 C60.915078,625.514055 61.0150777,625.474055 61.1160775,625.437055 C61.9140757,623.710059 63.3730725,622.398062 65.1760685,621.784063 C65.7640672,619.10307 67.4790634,616.772075 69.8700581,615.370078 C68.8390604,614.79908 67.6890629,614.50008 66.5000656,614.50008 C62.6400741,614.50008 59.5000811,617.640073 59.5000811,621.500064 L59.5000811,621.500064 Z M94.0000044,626.851052 C94.0000044,622.910061 90.7730116,619.704068 86.8070204,619.704068 C85.5730232,619.704068 84.3550259,620.020067 83.2850283,620.619066 C83.1370286,620.702066 82.968029,620.746066 82.7970293,620.746066 C82.7030295,620.746066 82.6090298,620.733066 82.51503,620.706066 C82.2580305,620.630066 82.039031,620.451066 81.9140313,620.215067 C80.5330344,617.615073 77.8410404,616.000077 74.8880469,616.000077 C70.9850556,616.000077 67.6090631,618.88907 67.0360644,622.719061 C66.9750645,623.12606 66.6780652,623.450059 66.278066,623.545059 C64.6750696,623.927058 63.3720725,625.072056 62.7930738,626.608052 C62.6770741,626.913051 62.4200746,627.143051 62.1050753,627.224051 C60.5710787,627.61605 59.5000811,628.986047 59.5000811,630.555043 C59.5000811,632.455038 61.0560777,634.000035 62.9680734,634.000035 L86.8070204,634.000035 C90.7730116,634.000035 94.0000044,630.793042 94.0000044,626.851052 L94.0000044,626.851052 Z M96,626.851052 C96,631.89604 91.8760092,636.00003 86.8070204,636.00003 L62.9680734,636.00003 C59.9530801,636.00003 57.5000856,633.557036 57.5000856,630.555043 C57.5000856,629.078046 58.0960842,627.68505 59.1500819,626.663052 C58.0690843,625.138055 57.5000856,623.36206 57.5000856,621.500064 C57.5000856,616.537075 61.5370766,612.500085 66.5000656,612.500085 C68.4980611,612.500085 70.4550568,613.183083 72.0400532,614.42908 C72.9780512,614.144081 73.935049,614.000081 74.8880469,614.000081 C78.2710394,614.000081 81.3400326,615.653078 83.1840285,618.444071 C84.3240259,617.959072 85.5670232,617.704073 86.8070204,617.704073 C91.8760092,617.704073 96,621.807063 96,626.851052 L96,626.851052 Z M55.9999889,620.999965 C55.9999889,620.448966 55.5509899,619.999967 54.9999911,619.999967 L51.9999978,619.999967 C51.448999,619.999967 51,620.448966 51,620.999965 C51,621.550964 51.448999,621.999963 51.9999978,621.999963 L54.9999911,621.999963 C55.5509899,621.999963 55.9999889,621.550964 55.9999889,620.999965 L55.9999889,620.999965 Z M70.7498592,611.714087 C70.9018589,611.802087 71.0748585,611.848086 71.2488581,611.848086 C71.6058573,611.848086 71.9378566,611.657087 72.1158562,611.349088 L73.6158528,608.750094 C73.8908522,608.272095 73.7268526,607.660096 73.2498537,607.384097 C73.096854,607.296097 72.9248544,607.250097 72.7498548,607.250097 C72.3938556,607.250097 72.0618563,607.441097 71.8838567,607.750096 L70.38386,610.34809 C70.1078606,610.826089 70.2728603,611.439087 70.7498592,611.714087 L70.7498592,611.714087 Z M59.5090811,611.697987 C59.6870807,612.006986 60.01908,612.197985 60.3750792,612.197985 C60.5500788,612.197985 60.7230784,612.151986 60.8740781,612.064986 C61.352077,611.788986 61.5160766,611.175988 61.2410772,610.697989 L59.7410806,608.099995 C59.562081,607.790996 59.2300817,607.599996 58.8740825,607.599996 C58.7000829,607.599996 58.5270833,607.645996 58.3750836,607.733996 C57.8980847,608.009995 57.733085,608.621994 58.0090844,609.099993 L59.5090811,611.697987 Z M66.5000656,609.999991 L66.5000656,606.999998 C66.5000656,606.448999 66.0510666,606 65.5000678,606 C64.949069,606 64.50007,606.448999 64.50007,606.999998 L64.50007,609.999991 C64.50007,610.550989 64.949069,610.999988 65.5000678,610.999988 C66.0510666,610.999988 66.5000656,610.550989 66.5000656,609.999991 Z M68.7200606,638.758024 C68.6550608,638.499024 68.4940611,638.280025 68.2650616,638.143025 C68.109062,638.049025 67.9310624,638.000026 67.7500628,638.000026 L67.7500628,638.000026 C67.4000636,638.000026 67.0720643,638.186025 66.8920647,638.486024 L63.8920714,643.486013 C63.609072,643.958012 63.7630716,644.57401 64.2350706,644.85801 C64.3910702,644.951009 64.5690698,645.000009 64.7490694,645.000009 C65.0990687,645.000009 65.4280679,644.81401 65.6070675,644.51501 L68.6070609,639.515022 C68.7450606,639.286023 68.7850605,639.017023 68.7200606,638.758024 L68.7200606,638.758024 Z M73.2190506,638.753024 C73.1530508,638.494024 72.9890511,638.276025 72.7590516,638.140025 C72.605052,638.048025 72.4290524,638.000026 72.2500528,638.000026 L72.2500528,638.000026 C71.8990536,638.000026 71.5690543,638.188025 71.3900547,638.490024 L67.3900636,645.240009 C67.2530639,645.470008 67.215064,645.739008 67.2810638,645.998007 C67.3470637,646.257006 67.5100633,646.475006 67.7400628,646.611006 C67.8940625,646.702005 68.0700621,646.750005 68.2490617,646.750005 C68.6010609,646.750005 68.9310602,646.562006 69.1100598,646.260006 L73.1100509,639.510022 C73.2460506,639.281023 73.2850505,639.012023 73.2190506,638.753024 L73.2190506,638.753024 Z M77.2650416,638.143025 C77.109042,638.049025 76.9310424,638.000026 76.7500428,638.000026 C76.4010436,638.000026 76.0720443,638.186025 75.8920447,638.486024 L72.8920514,643.486013 C72.7550517,643.715012 72.7150517,643.983012 72.7800516,644.243011 C72.8440515,644.50201 73.0060511,644.72001 73.2350506,644.85801 C73.3910502,644.951009 73.5690498,645.000009 73.7490494,645.000009 C74.0990487,645.000009 74.4280479,644.81401 74.6070475,644.51501 L77.6070409,639.515022 C77.8910402,639.042023 77.7370406,638.426025 77.2650416,638.143025 L77.2650416,638.143025 Z M81.7540317,638.136025 C81.600032,638.047025 81.4270324,638.001026 81.2510328,638.001026 L81.2510328,638.001026 C80.8970336,638.001026 80.5650343,638.190025 80.3860347,638.495024 L75.1360464,647.496003 C74.859047,647.973002 75.0210466,648.587001 75.4960456,648.864 C75.6500452,648.953 75.8230448,649 75.9990444,649 C76.3530437,649 76.6840429,648.81 76.8630425,648.505001 L82.1140309,639.504022 C82.3910302,639.027023 82.2290306,638.414025 81.7540317,638.136025 L81.7540317,638.136025 Z M86.6170209,639.499022 L82.7060295,646.294006 C82.5280299,646.603006 82.1960307,646.795005 81.8390315,646.795005 C81.6660319,646.795005 81.4940322,646.749005 81.3400326,646.661005 C80.8630336,646.386006 80.698034,645.773008 80.9730334,645.296009 L84.8830247,638.501024 C85.0620243,638.192025 85.3940236,638.000026 85.7510228,638.000026 L85.7510228,638.000026 C85.9240224,638.000026 86.096022,638.046025 86.2490217,638.134025 C86.7270206,638.409025 86.8920202,639.022023 86.6170209,639.499022 L86.6170209,639.499022 Z" id="Weather"></path>
        </g>
    </g>
</svg>